<?xml version="1.0" standalone="no"?>
<!DOCTYPE svg PUBLIC "-//W3C//DTD SVG 1.1//EN" "http://www.w3.org/Graphics/SVG/1.1/DTD/svg11.dtd" >
<svg xmlns="http://www.w3.org/2000/svg" xmlns:xlink="http://www.w3.org/1999/xlink" version="1.1">
<metadata>
Created by FontForge 20170731 at Fri Sep 12 16:04:13 2008
 By Aleksey,,,
Copyright (C) 2005, 2008 Hoefler &#38; Frere-Jones. http://www.typography.com
</metadata>
<defs>
<font id="GothamNarrow-BlackItalic" horiz-adv-x="500" >
  <font-face 
    font-family="Gotham Narrow Black"
    font-weight="450"
    font-style="italic"
    font-stretch="condensed"
    units-per-em="1000"
    panose-1="0 0 0 0 0 0 0 0 0 0"
    ascent="800"
    descent="-200"
    x-height="543"
    cap-height="700"
    bbox="-127 -289 1145 1012"
    underline-thickness="50"
    underline-position="-300"
    slope="-14"
    unicode-range="U+0020-FB04"
  />
<missing-glyph 
d="M0 -200v1000h500v-1000h-500zM50 -76l172 376l-172 376v-752zM71 -150h358l-179 390zM250 360l179 390h-358zM450 -76v752l-172 -376z" />
    <glyph glyph-name="f_f" unicode="ff" horiz-adv-x="736" 
d="M4 0l97 398h-55l37 145h53l4 14q19 81 61 123q51 50 148 50q57 0 105 -15l-33 -129q-25 9 -50 9t-37.5 -10.5t-17.5 -33.5l-3 -10h98l-37 -143h-94l-96 -398h-180zM371 0l97 398h-55l37 145h53l4 14q19 81 61 123q51 50 148 50q57 0 105 -15l-33 -129q-25 9 -50 9
t-37.5 -10.5t-17.5 -33.5l-3 -10h98l-37 -143h-94l-96 -398h-180z" />
    <glyph glyph-name="fi" unicode="fi" horiz-adv-x="640" 
d="M4 0l97 398h-55l37 145h53l4 14q19 81 61 123q51 50 148 50q57 0 105 -15l-33 -129q-25 9 -50 9t-37.5 -10.5t-17.5 -33.5l-3 -10h98l-37 -143h-94l-96 -398h-180zM347 0l133 543h179l-132 -543h-180zM487 587l36 140h185l-36 -140h-185z" />
    <glyph glyph-name="fl" unicode="fl" horiz-adv-x="640" 
d="M4 0l97 398h-55l37 145h53l4 14q19 81 61 123q51 50 148 50q57 0 105 -15l-33 -129q-25 9 -50 9t-37.5 -10.5t-17.5 -33.5l-3 -10h98l-37 -143h-94l-96 -398h-180zM347 0l177 723h179l-176 -723h-180z" />
    <glyph glyph-name="f_f_i" unicode="ffi" horiz-adv-x="1008" 
d="M4 0l97 398h-55l37 145h53l4 14q19 81 61 123q51 50 148 50q57 0 105 -15l-33 -129q-25 9 -50 9t-37.5 -10.5t-17.5 -33.5l-3 -10h98l-37 -143h-94l-96 -398h-180zM371 0l97 398h-55l37 145h53l4 14q19 81 61 123q51 50 148 50q57 0 105 -15l-33 -129q-25 9 -50 9
t-37.5 -10.5t-17.5 -33.5l-3 -10h98l-37 -143h-94l-96 -398h-180zM716 0l133 543h179l-132 -543h-180zM856 587l36 140h185l-36 -140h-185z" />
    <glyph glyph-name="f_f_l" unicode="ffl" horiz-adv-x="1008" 
d="M4 0l97 398h-55l37 145h53l4 14q19 81 61 123q51 50 148 50q57 0 105 -15l-33 -129q-25 9 -50 9t-37.5 -10.5t-17.5 -33.5l-3 -10h98l-37 -143h-94l-96 -398h-180zM371 0l97 398h-55l37 145h53l4 14q19 81 61 123q51 50 148 50q57 0 105 -15l-33 -129q-25 9 -50 9
t-37.5 -10.5t-17.5 -33.5l-3 -10h98l-37 -143h-94l-96 -398h-180zM716 0l177 723h179l-176 -723h-180z" />
    <glyph glyph-name=".notdef" 
d="M0 -200v1000h500v-1000h-500zM50 -76l172 376l-172 376v-752zM71 -150h358l-179 390zM250 360l179 390h-358zM450 -76v752l-172 -376z" />
    <glyph glyph-name=".null" horiz-adv-x="0" 
 />
    <glyph glyph-name="nonmarkingreturn" horiz-adv-x="333" 
 />
    <glyph glyph-name="space" unicode=" " horiz-adv-x="211" 
 />
    <glyph glyph-name="exclam" unicode="!" horiz-adv-x="299" 
d="M93 230l40 408l16 62h208l-15 -62l-157 -408h-92zM-11 0l42 169h188l-42 -169h-188z" />
    <glyph glyph-name="quotedbl" unicode="&#x22;" horiz-adv-x="483" 
d="M64 356l81 344h190l-1 -6l-178 -338h-92zM298 356l80 344h190l-1 -6l-178 -338h-91z" />
    <glyph glyph-name="numbersign" unicode="#" horiz-adv-x="608" 
d="M26 0l42 138h-69l32 153h85l36 121h-78l33 153h93l42 135h135l-41 -135h104l42 135h136l-42 -135h70l-33 -153h-85l-37 -121h80l-33 -153h-94l-43 -138h-136l43 138h-105l-42 -138h-135zM247 287h112l38 129h-111z" />
    <glyph glyph-name="dollar" unicode="$" horiz-adv-x="567" 
d="M369 762h105l-19 -74q90 -24 153 -80l-101 -127q-78 69 -163 70h-2q-34 1 -53.5 -14t-19.5 -37q0 -20 19.5 -37t72.5 -43l2 -1q82 -37 126.5 -81.5t44.5 -109.5q0 -100 -73 -164t-191 -65l-27 -99h-106l30 109q-112 24 -189 101l106 123q95 -83 189 -84h4q36 0 56 16.5
t20 42.5q0 21 -20 36.5t-77 38.5q-84 38 -126 81t-42 112q0 98 72 161t192 64z" />
    <glyph glyph-name="percent" unicode="%" horiz-adv-x="809" 
d="M56 0l334 376l279 324h121l-334 -376l-279 -324h-121zM217 332q-68 0 -106.5 42t-38.5 114q0 106 65 171q49 49 120 49q67 0 106 -42t39 -113q0 -105 -65 -172q-49 -49 -120 -49zM224 430q20 0 35 15q35 37 35 105q0 29 -12 44.5t-32 15.5t-35 -15q-35 -33 -35 -105
q0 -60 44 -60zM589 -8q-67 0 -106 42t-39 113q0 105 65 172q51 49 120 49q68 0 106.5 -42t38.5 -114q0 -106 -65 -171q-49 -49 -120 -49zM596 89q18 0 36 16q34 34 34 104q0 60 -44 60q-20 0 -35 -15q-35 -35 -35 -105q0 -29 12 -44.5t32 -15.5z" />
    <glyph glyph-name="ampersand" unicode="&#x26;" horiz-adv-x="622" 
d="M497 344l113 -68q-44 -80 -91 -135l49 -77l-126 -79l-37 61q-83 -57 -179 -57q-101 0 -160 50.5t-59 135.5q0 148 179 224q-32 67 -32 124q0 79 56 134t149 55q85 0 138 -48t53 -120q0 -127 -163 -197l54 -90q22 29 56 87zM250 129q38 0 81 27l-82 138q-69 -43 -69 -102
q0 -28 18 -45.5t52 -17.5zM303 518q0 -34 20 -73q80 37 80 89q0 22 -12 36t-34 14q-24 0 -39 -19t-15 -47z" />
    <glyph glyph-name="quotesingle" unicode="'" horiz-adv-x="251" 
d="M64 356l81 344h193l-2 -6l-178 -338h-94z" />
    <glyph glyph-name="parenleft" unicode="(" horiz-adv-x="395" 
d="M205 -141q-87 72 -131.5 156.5t-44.5 194.5q0 219 149 368q91 91 226 133l50 -125q-86 -38 -137 -91q-116 -115 -116 -281q0 -73 25 -130.5t81 -122.5z" />
    <glyph glyph-name="parenright" unicode=")" horiz-adv-x="395" 
d="M195 713q87 -72 131.5 -156.5t44.5 -194.5q0 -219 -149 -368q-91 -91 -226 -133l-50 125q86 38 137 91q116 115 116 281q0 73 -25 130.5t-81 122.5z" />
    <glyph glyph-name="asterisk" unicode="*" horiz-adv-x="394" 
d="M265 347l-100 25l55 116l-112 -59l-29 100l126 11l-106 70l72 73l71 -104l6 128l99 -24l-54 -117l112 59l29 -99l-126 -11l106 -70l-73 -74l-71 104z" />
    <glyph glyph-name="plus" unicode="+" horiz-adv-x="564" 
d="M161 117l38 155h-153l40 160h153l38 154h164l-38 -154h153l-40 -160h-153l-38 -155h-164z" />
    <glyph glyph-name="comma" unicode="," horiz-adv-x="277" 
d="M-61 -159l-8 71q109 11 124 89h-76l46 187h189l-41 -162q-23 -93 -78.5 -137t-155.5 -48z" />
    <glyph glyph-name="hyphen" unicode="-" horiz-adv-x="378" 
d="M26 232l40 160h305l-40 -160h-305z" />
    <glyph glyph-name="period" unicode="." horiz-adv-x="277" 
d="M-22 0l47 187h188l-46 -187h-189z" />
    <glyph glyph-name="slash" unicode="/" horiz-adv-x="463" 
d="M-127 -118l585 906h153l-586 -906h-152z" />
    <glyph glyph-name="zero" unicode="0" horiz-adv-x="632" 
d="M385 713q112 0 178.5 -72.5t66.5 -195.5q0 -97 -35 -200.5t-100 -168.5q-89 -89 -211 -89q-112 0 -178.5 72.5t-66.5 195.5q0 97 35 200.5t100 168.5q87 89 211 89zM298 150q35 0 64 29q36 36 60 115.5t24 145.5q0 110 -75 110q-34 0 -64 -30q-36 -36 -60.5 -116
t-24.5 -145q0 -109 76 -109z" />
    <glyph glyph-name="one" unicode="1" horiz-adv-x="386" 
d="M69 0l126 520l-102 -25l4 155l192 54h133l-172 -704h-181z" />
    <glyph glyph-name="two" unicode="2" horiz-adv-x="546" 
d="M-33 0l37 147l293 230q81 65 81 116q0 26 -16.5 40.5t-43.5 14.5q-56 0 -133 -71l-96 122q110 112 249 112q104 0 164.5 -53.5t60.5 -137.5q0 -68 -35 -122.5t-123 -119.5l-155 -123h239l-40 -155h-482z" />
    <glyph glyph-name="three" unicode="3" horiz-adv-x="525" 
d="M211 -12q-153 0 -241 105l113 121q59 -66 129 -66q43 0 69.5 24.5t26.5 58.5q0 72 -108 72h-45l3 103l168 141h-220l39 153h445l-35 -137l-191 -154q59 -21 92 -65t33 -105q0 -104 -71 -175q-76 -76 -207 -76z" />
    <glyph glyph-name="four" unicode="4" horiz-adv-x="592" 
d="M260 0l32 132h-277l-10 136l410 436h191l-104 -430h76l-36 -142h-74l-32 -132h-176zM188 273h139l52 209z" />
    <glyph glyph-name="five" unicode="5" horiz-adv-x="534" 
d="M217 -12q-72 0 -136 28t-107 73l106 125q69 -66 138 -66q48 0 77.5 29.5t29.5 71.5q0 33 -22.5 53t-64.5 20q-37 0 -75 -20l-90 61l100 337h407l-40 -156h-258l-28 -98q29 8 62 8q88 0 140.5 -49.5t52.5 -136.5q0 -119 -78 -197q-83 -83 -214 -83z" />
    <glyph glyph-name="six" unicode="6" horiz-adv-x="570" 
d="M269 -12q-108 0 -167 59q-66 66 -66 182q0 98 36.5 209.5t103.5 178.5q95 95 231 95q114 0 195 -64l-86 -137q-55 47 -118 47q-59 0 -100 -41q-38 -38 -59 -100q52 40 128 40t126 -46t50 -131q0 -60 -23 -117.5t-62 -97.5q-77 -77 -189 -77zM271 130q32 0 57 25
q36 36 36 100q0 35 -17 53.5t-47 18.5q-32 0 -58 -24q-37 -39 -37 -98q0 -37 20 -57q18 -18 46 -18z" />
    <glyph glyph-name="seven" unicode="7" horiz-adv-x="528" 
d="M-12 0l366 542h-263l40 158h467l-35 -136l-371 -564h-204z" />
    <glyph glyph-name="eight" unicode="8" horiz-adv-x="577" 
d="M260 -11q-106 0 -175 52.5t-70 139.5q0 143 150 195q-64 50 -64 128q0 83 66.5 145t182.5 62q103 0 165 -51t62 -132q0 -131 -133 -180q86 -48 86 -140t-74 -155.5t-196 -63.5zM268 127q37 0 62.5 27.5t26.5 65.5q0 35 -21 54.5t-55 19.5q-37 0 -62 -27.5t-26 -64.5
q0 -34 21.5 -54.5t53.5 -20.5zM328 418q33 0 56 26t24 60q0 30 -17.5 49.5t-49.5 19.5q-33 0 -55.5 -26t-23.5 -60q0 -31 17.5 -50t48.5 -19z" />
    <glyph glyph-name="nine" unicode="9" horiz-adv-x="570" 
d="M203 -11q-118 0 -207 70l87 138q62 -54 129 -54q58 0 100 42q39 39 55 92q-56 -41 -127 -41q-75 0 -124.5 46.5t-50.5 134.5q0 134 85 219q77 77 189 77q108 0 168 -60q65 -65 65 -192q0 -95 -36.5 -202.5t-104.5 -175.5q-92 -94 -228 -94zM308 367q34 0 59 25
q36 36 36 103q0 41 -19 58q-15 17 -45 17q-33 0 -57 -24q-17 -17 -28 -47t-10 -60q1 -36 18 -54t46 -18z" />
    <glyph glyph-name="colon" unicode=":" horiz-adv-x="281" 
d="M-20 0l47 187h188l-47 -187h-188zM66 357l47 186h188l-47 -186h-188z" />
    <glyph glyph-name="semicolon" unicode=";" horiz-adv-x="281" 
d="M-60 -160l-8 70q108 13 125 90h-77l47 187h188l-40 -162q-23 -93 -78.5 -136.5t-156.5 -48.5zM66 357l47 186h188l-47 -186h-188z" />
    <glyph glyph-name="less" unicode="&#x3c;" horiz-adv-x="564" 
d="M450 85l-397 184l43 165l486 185l-46 -177l-301 -98l255 -97z" />
    <glyph glyph-name="equal" unicode="=" horiz-adv-x="564" 
d="M26 150l39 157h453l-40 -157h-452zM87 397l40 157h452l-40 -157h-452z" />
    <glyph glyph-name="greater" unicode="&#x3e;" horiz-adv-x="564" 
d="M19 84l46 178l301 97l-255 97l40 163l397 -185l-42 -165z" />
    <glyph glyph-name="question" unicode="?" horiz-adv-x="481" 
d="M144 230l18 173l9 8q159 16 159 88q0 47 -54 47q-52 0 -116 -45l-69 137q96 71 215 71q96 0 153 -49.5t57 -126.5q0 -174 -225 -221l-31 -82h-116zM51 0l43 169h188l-43 -169h-188z" />
    <glyph glyph-name="at" unicode="@" horiz-adv-x="854" 
d="M395 -147q-159 0 -259.5 96.5t-100.5 258.5q0 132 57.5 247.5t162.5 187t231 71.5q160 0 254 -91t94 -229q0 -151 -68 -244t-164 -93q-49 0 -83 23t-48 61q-67 -82 -144 -82q-57 0 -94 41t-37 112q0 120 69 214t160 94q75 0 106 -69l19 62l135 -34l-76 -256
q-12 -40 -12 -61q0 -23 13.5 -35.5t37.5 -12.5q53 0 99 82.5t46 198.5q0 121 -83 200t-225 79q-115 0 -210 -66t-147 -172.5t-52 -226.5q0 -145 88.5 -231t231.5 -86q95 0 188 45l16 -35q-101 -49 -205 -49zM395 177q38 0 71.5 51t33.5 108q0 63 -50 63q-39 0 -72.5 -51.5
t-33.5 -105.5q0 -65 51 -65z" />
    <glyph glyph-name="A" unicode="A" horiz-adv-x="669" 
d="M-67 0l417 704h186l73 -704h-190l-9 128h-211l-70 -128h-196zM284 275h115l-10 206z" />
    <glyph glyph-name="B" unicode="B" horiz-adv-x="618" 
d="M-16 0l171 700h238q123 0 180.5 -46t57.5 -121q0 -69 -39.5 -115.5t-106.5 -65.5q94 -40 94 -136q0 -100 -78.5 -158t-224.5 -58h-292zM201 152h96q46 0 73 21.5t27 56.5q0 56 -76 56h-90zM265 420h85q48 0 73.5 20t25.5 55q0 53 -76 53h-79z" />
    <glyph glyph-name="C" unicode="C" horiz-adv-x="608" 
d="M329 -12q-131 0 -210 79t-79 213q0 91 32.5 179t94.5 150q105 103 251 103q79 0 142 -36t100 -99l-142 -109q-25 38 -50.5 56.5t-61.5 18.5q-56 0 -100 -46q-35 -34 -55.5 -91t-20.5 -113q0 -63 30.5 -99.5t80.5 -36.5q57 0 118 55l102 -125q-99 -99 -232 -99z" />
    <glyph glyph-name="D" unicode="D" horiz-adv-x="660" 
d="M-16 0l171 700h189q161 0 242 -79q72 -71 72 -202q0 -80 -31 -164.5t-90 -142.5q-112 -112 -319 -112h-234zM437 503q-33 33 -104 33h-36l-89 -372h36q99 0 157 56q32 33 50.5 85.5t18.5 100.5q0 64 -33 97z" />
    <glyph glyph-name="E" unicode="E" horiz-adv-x="571" 
d="M-16 0l171 700h479l-40 -159h-297l-26 -114h267l-38 -150h-267l-28 -118h303l-41 -159h-483z" />
    <glyph glyph-name="F" unicode="F" horiz-adv-x="552" 
d="M-16 0l171 700h477l-42 -164h-293l-28 -122h264l-40 -156h-263l-62 -258h-184z" />
    <glyph glyph-name="G" unicode="G" horiz-adv-x="655" 
d="M334 -12q-123 0 -209.5 74.5t-86.5 213.5q0 89 33 177t94 148q111 111 274 111q153 0 245 -97l-120 -128q-63 59 -136 59q-75 0 -126 -53q-36 -36 -56.5 -95t-20.5 -114q0 -65 35 -100.5t89 -35.5q33 0 62 11l26 109h-105l36 142h277l-92 -366q-102 -56 -219 -56z" />
    <glyph glyph-name="H" unicode="H" horiz-adv-x="658" 
d="M-16 0l171 700h184l-65 -265h190l64 265h184l-171 -700h-184l66 269h-190l-65 -269h-184z" />
    <glyph glyph-name="I" unicode="I" horiz-adv-x="293" 
d="M-12 0l172 700h183l-171 -700h-184z" />
    <glyph glyph-name="J" unicode="J" horiz-adv-x="483" 
d="M172 -11q-140 0 -212 103l117 119q43 -57 85 -57q31 0 50 21q25 25 42 95l103 430h184l-110 -457q-30 -128 -92 -190q-64 -64 -167 -64z" />
    <glyph glyph-name="K" unicode="K" horiz-adv-x="626" 
d="M-16 0l171 700h184l-66 -270l229 270h224l-280 -307l121 -393h-197l-71 260l-92 -97l-39 -163h-184z" />
    <glyph glyph-name="L" unicode="L" horiz-adv-x="526" 
d="M-16 0l171 700h184l-130 -536h269l-42 -164h-452z" />
    <glyph glyph-name="M" unicode="M" horiz-adv-x="752" 
d="M-16 0l171 700h185l69 -262l195 262h203l-171 -700h-183l95 398l-207 -265h-3l-78 263l-95 -396h-181z" />
    <glyph glyph-name="N" unicode="N" horiz-adv-x="676" 
d="M-16 0l171 700h173l131 -377l91 377h181l-171 -700h-163l-138 392l-94 -392h-181z" />
    <glyph glyph-name="O" unicode="O" horiz-adv-x="694" 
d="M412 713q126 0 203 -79t77 -210q0 -90 -34 -182.5t-96 -153.5q-101 -101 -242 -101q-126 0 -203 79t-77 210q0 90 34 182.5t96 154.5q100 100 242 100zM336 153q51 0 92 41q35 35 56.5 98.5t21.5 118.5q0 65 -28.5 100.5t-81.5 35.5t-92 -41q-35 -35 -56.5 -99
t-21.5 -118q0 -65 28.5 -100.5t81.5 -35.5z" />
    <glyph glyph-name="P" unicode="P" horiz-adv-x="588" 
d="M-16 0l171 700h189q150 0 217 -67q55 -55 55 -143q0 -122 -77 -199q-88 -88 -247 -88h-76l-48 -203h-184zM409 522q-23 22 -71 22h-39l-46 -194h43q66 0 100 34q32 32 32 85q0 32 -19 53z" />
    <glyph glyph-name="Q" unicode="Q" horiz-adv-x="695" 
d="M412 713q126 0 203 -79t77 -210q0 -80 -28 -163t-78 -145l47 -74l-136 -82l-34 60q-69 -32 -143 -32q-126 0 -203 78.5t-77 209.5q0 90 34 182.5t96 154.5q100 100 242 100zM334 150q22 0 41 6l-65 99l136 83l34 -60q26 69 26 132q0 66 -28 101.5t-81 35.5q-55 0 -93 -40
q-36 -36 -57.5 -100.5t-21.5 -119.5q0 -137 109 -137z" />
    <glyph glyph-name="R" unicode="R" horiz-adv-x="626" 
d="M348 0l-73 213h-11h-46l-50 -213h-184l171 700h213q155 0 222 -67q54 -54 54 -143q0 -110 -67 -179q-45 -45 -117 -69l88 -242h-200zM256 359h68q68 0 102 33q29 31 29 77q0 32 -20 50q-21 22 -72 22h-64z" />
    <glyph glyph-name="S" unicode="S" horiz-adv-x="554" 
d="M250 -11q-166 0 -276 118l112 129q92 -90 175 -90q28 0 44.5 13.5t16.5 36.5q0 19 -17.5 36.5t-72.5 49.5q-76 45 -111.5 90t-35.5 107q0 94 63 157q75 75 198 75q145 0 248 -98l-110 -130q-76 71 -148 71q-28 0 -44.5 -13.5t-16.5 -33.5q0 -19 17.5 -35.5t74.5 -51.5
q74 -43 110.5 -88t36.5 -110q0 -95 -66 -161q-72 -72 -198 -72z" />
    <glyph glyph-name="T" unicode="T" horiz-adv-x="550" 
d="M116 0l130 536h-172l42 164h527l-42 -164h-171l-130 -536h-184z" />
    <glyph glyph-name="U" unicode="U" horiz-adv-x="658" 
d="M290 -12q-117 0 -182 57t-65 159q0 47 16 113l92 383h185l-96 -397q-10 -43 -10 -69q0 -38 21.5 -59t59.5 -21q45 0 72 27q30 30 47 97l102 422h184l-107 -444q-33 -127 -96 -190q-76 -78 -223 -78z" />
    <glyph glyph-name="V" unicode="V" horiz-adv-x="640" 
d="M163 -4l-62 704h197l16 -435l227 435h202l-406 -704h-174z" />
    <glyph glyph-name="W" unicode="W" horiz-adv-x="961" 
d="M130 -4l-23 704h189l-4 -409l207 411h157l14 -411l190 409h199l-367 -704h-170l-18 389l-205 -389h-169z" />
    <glyph glyph-name="X" unicode="X" horiz-adv-x="612" 
d="M-68 0l288 367l-109 333h198l48 -196l137 196h215l-275 -349l117 -351h-199l-55 217l-151 -217h-214z" />
    <glyph glyph-name="Y" unicode="Y" horiz-adv-x="585" 
d="M128 0l65 271l-109 429h195l45 -257l169 257h213l-332 -444l-63 -256h-183z" />
    <glyph glyph-name="Z" unicode="Z" horiz-adv-x="581" 
d="M-34 0l35 138l372 404h-268l40 158h509l-34 -138l-373 -404h279l-40 -158h-520z" />
    <glyph glyph-name="bracketleft" unicode="[" horiz-adv-x="407" 
d="M-30 -130l202 830h303l-31 -124h-141l-142 -582h143l-32 -124h-302z" />
    <glyph glyph-name="backslash" unicode="\" horiz-adv-x="463" 
d="M260 -118l-160 906h141l160 -906h-141z" />
    <glyph glyph-name="bracketright" unicode="]" horiz-adv-x="407" 
d="M443 700l-202 -830h-303l31 124h141l142 582h-143l32 124h302z" />
    <glyph glyph-name="asciicircum" unicode="^" horiz-adv-x="470" 
d="M94 497l170 200h125l72 -200h-115l-39 96l-84 -96h-129z" />
    <glyph glyph-name="underscore" unicode="_" horiz-adv-x="562" 
d="M-106 -158l29 116h565l-28 -116h-566z" />
    <glyph glyph-name="grave" unicode="`" 
d="M328 582l-108 120l165 53l57 -173h-114z" />
    <glyph glyph-name="a" unicode="a" horiz-adv-x="526" 
d="M126 -10q-60 0 -95.5 38t-35.5 101q0 91 55 146q56 56 158 56q54 0 114 -21l2 8q5 20 5 38q0 52 -76 52q-61 0 -124 -26l-29 136q88 32 191 32q106 0 161.5 -41.5t55.5 -117.5q0 -39 -13 -89l-72 -302h-177l12 52q-62 -62 -132 -62zM211 102q29 0 51.5 25t31.5 61l9 38
q-28 11 -56 11q-35 0 -55 -21q-25 -23 -25 -65q0 -49 44 -49z" />
    <glyph glyph-name="b" unicode="b" horiz-adv-x="588" 
d="M309 -11q-91 0 -137 80l-16 -69h-180l176 724h180l-57 -236q64 67 135 67q68 0 113 -54t45 -150q0 -81 -28.5 -162.5t-77.5 -131.5q-68 -68 -153 -68zM272 140q34 0 60 27q24 24 39 66t15 85q0 41 -17 64t-50 23t-60 -27q-25 -25 -39.5 -67.5t-14.5 -83.5t18 -64t49 -23z
" />
    <glyph glyph-name="c" unicode="c" horiz-adv-x="477" 
d="M244 -12q-101 0 -162.5 61.5t-61.5 166.5q0 71 25.5 139t74.5 117q81 81 194 81q136 0 194 -114l-128 -92q-30 54 -69 54q-35 0 -61 -28q-25 -24 -39.5 -65t-14.5 -81q0 -42 18 -64.5t47 -22.5q35 0 79 39l93 -107q-77 -84 -189 -84z" />
    <glyph glyph-name="d" unicode="d" horiz-adv-x="588" 
d="M300 0l13 56q-65 -67 -135 -67q-68 0 -113 54.5t-45 150.5q0 80 28.5 162t77.5 131q68 68 153 68q91 0 138 -80l59 249h180l-177 -724h-179zM269 140q34 0 60 26q25 25 39.5 68t14.5 84q0 40 -18 63t-49 23q-34 0 -60 -26q-24 -24 -39 -66.5t-15 -84.5q0 -41 17 -64
t50 -23z" />
    <glyph glyph-name="e" unicode="e" horiz-adv-x="532" 
d="M496 215h-309q2 -42 23 -65t60 -23q49 0 106 39l70 -113q-82 -65 -192 -65q-109 0 -171 63t-62 172q0 69 26.5 136.5t74.5 115.5q79 79 193 79q98 0 150.5 -58.5t52.5 -151.5q0 -63 -22 -129zM242 391q-28 -28 -42 -78h152q6 22 6 42q0 28 -15 45.5t-41 17.5
q-33 0 -60 -27z" />
    <glyph glyph-name="f" unicode="f" horiz-adv-x="368" 
d="M4 0l97 398h-55l37 145h53l4 14q19 81 61 123q51 50 148 50q57 0 105 -15l-33 -129q-25 9 -50 9t-37.5 -10.5t-17.5 -33.5l-3 -10h98l-37 -143h-94l-96 -398h-180z" />
    <glyph glyph-name="g" unicode="g" horiz-adv-x="584" 
d="M205 -152q-141 0 -245 63l70 122q83 -52 165 -52q54 0 87 31q26 26 39 78l6 23q-65 -68 -143 -68q-69 0 -114 46.5t-45 129.5q0 72 27.5 146.5t74.5 121.5q65 65 148 65q94 0 138 -83l17 72h180l-108 -445q-30 -126 -87 -181q-69 -69 -210 -69zM267 179q35 0 62 27
q45 49 45 124q0 38 -17.5 58.5t-46.5 20.5q-34 0 -58 -26q-22 -22 -34.5 -58.5t-12.5 -69.5q0 -76 62 -76z" />
    <glyph glyph-name="h" unicode="h" horiz-adv-x="556" 
d="M-24 0l176 723h180l-58 -237q62 68 137 68q62 0 97.5 -37.5t35.5 -102.5q0 -32 -14 -95l-77 -319h-180l73 301q7 28 7 48q0 45 -45 45q-58 0 -76 -80l-76 -314h-180z" />
    <glyph glyph-name="i" unicode="i" horiz-adv-x="272" 
d="M-20 0l133 543h179l-132 -543h-180zM120 587l36 140h185l-36 -140h-185z" />
    <glyph glyph-name="j" unicode="j" horiz-adv-x="274" 
d="M-45 -153q-45 0 -82 9l31 118q21 -3 22 -3q29 0 43.5 15t23.5 53l122 504h179l-127 -524q-24 -96 -74 -134t-138 -38zM122 587l35 140h186l-36 -140h-185z" />
    <glyph glyph-name="k" unicode="k" horiz-adv-x="528" 
d="M-24 0l177 723h180l-83 -343l139 163h211l-210 -219l81 -324h-191l-39 200l-50 -55l-35 -145h-180z" />
    <glyph glyph-name="l" unicode="l" horiz-adv-x="272" 
d="M-20 0l177 723h179l-176 -723h-180z" />
    <glyph glyph-name="m" unicode="m" horiz-adv-x="849" 
d="M-24 0l133 543h179l-14 -56q63 67 137 67q91 0 120 -84q73 84 169 84q66 0 101.5 -36t35.5 -99q0 -39 -14 -98l-77 -321h-179l73 303q7 25 7 47q0 44 -44 44q-57 0 -76 -78l-77 -316h-179l74 303q7 31 7 47q0 44 -45 44q-57 0 -75 -80l-77 -314h-179z" />
    <glyph glyph-name="n" unicode="n" horiz-adv-x="554" 
d="M-24 0l133 543h179l-14 -57q62 68 137 68q62 0 97.5 -37.5t35.5 -102.5q0 -32 -14 -95l-77 -319h-180l73 301q7 28 7 48q0 45 -45 45q-58 0 -76 -80l-76 -314h-180z" />
    <glyph glyph-name="o" unicode="o" horiz-adv-x="564" 
d="M312 554q107 0 168.5 -64.5t61.5 -169.5q0 -70 -26 -138t-72 -114q-78 -80 -191 -80q-107 0 -168.5 64.5t-61.5 169.5q0 71 25.5 138.5t72.5 114.5q79 79 191 79zM262 138q32 0 55 25q24 23 38.5 66t14.5 84q0 44 -18 67.5t-50 23.5q-31 0 -55 -24q-23 -23 -38 -67
t-15 -84q0 -44 18.5 -67.5t49.5 -23.5z" />
    <glyph glyph-name="p" unicode="p" horiz-adv-x="588" 
d="M309 -11q-91 0 -137 80l-53 -219h-180l170 694h179l-13 -56q64 67 135 67q68 0 113 -54t45 -150q0 -81 -28.5 -162.5t-77.5 -131.5q-68 -68 -153 -68zM272 140q34 0 60 27q24 24 39 66t15 85q0 41 -17 64t-50 23t-60 -27q-25 -25 -39.5 -67.5t-14.5 -83.5t18 -64t49 -23z
" />
    <glyph glyph-name="q" unicode="q" horiz-adv-x="588" 
d="M178 -11q-68 0 -113 54.5t-45 150.5q0 80 28.5 162t77.5 131q68 68 154 68q90 0 137 -80l15 69h180l-169 -694h-180l50 206q-65 -67 -135 -67zM269 140q34 0 60 26q25 25 39.5 68t14.5 84q0 40 -18 63t-49 23q-34 0 -60 -26q-24 -24 -39 -66.5t-15 -84.5q0 -41 17 -64
t50 -23z" />
    <glyph glyph-name="r" unicode="r" horiz-adv-x="377" 
d="M-24 0l133 543h179l-23 -93q68 109 167 102l-50 -193h-12q-67 0 -106.5 -36.5t-59.5 -118.5l-48 -204h-180z" />
    <glyph glyph-name="s" unicode="s" horiz-adv-x="445" 
d="M195 -12q-135 0 -233 93l88 112q76 -74 146 -74q19 0 29.5 9t10.5 23q0 15 -13.5 26.5t-58.5 38.5q-59 35 -87.5 70t-28.5 85q0 78 57 130.5t154 52.5q119 0 208 -77l-85 -115q-69 61 -128 61q-16 0 -26.5 -8t-10.5 -21q0 -14 12.5 -25t57.5 -37q61 -36 90 -72t29 -88
q0 -76 -56 -130t-155 -54z" />
    <glyph glyph-name="t" unicode="t" horiz-adv-x="373" 
d="M178 -10q-69 0 -106 30.5t-37 87.5q0 27 10 69l53 221h-54l36 145h54l32 133h180l-32 -133h100l-37 -145h-99l-48 -199q-4 -15 -4 -29q0 -26 34 -26q26 0 59 12l-37 -147q-47 -19 -104 -19z" />
    <glyph glyph-name="u" unicode="u" horiz-adv-x="556" 
d="M147 -11q-62 0 -97 37.5t-35 102.5q0 39 14 95l77 319h180l-73 -301q-7 -27 -7 -48q0 -45 45 -45q58 0 76 80l76 314h179l-132 -543h-179l14 58q-61 -69 -138 -69z" />
    <glyph glyph-name="v" unicode="v" horiz-adv-x="546" 
d="M123 -4l-50 547h183l5 -317l156 317h189l-316 -547h-167z" />
    <glyph glyph-name="w" unicode="w" horiz-adv-x="759" 
d="M84 -4l-8 547h174l-12 -280l133 282h148v-283l123 281h175l-277 -547h-155l-5 280l-139 -280h-157z" />
    <glyph glyph-name="x" unicode="x" horiz-adv-x="521" 
d="M260 543l33 -134l88 134h199l-219 -274l92 -269h-184l-34 143l-94 -143h-198l223 282l-89 261h183z" />
    <glyph glyph-name="y" unicode="y" horiz-adv-x="544" 
d="M127 6l-48 537h181l5 -324l150 324h188l-293 -538q-47 -86 -95 -122t-118 -36q-77 0 -132 42l70 126q32 -25 61 -25q18 0 31 16z" />
    <glyph glyph-name="z" unicode="z" horiz-adv-x="478" 
d="M-39 0l31 122l267 278h-196l36 143h420l-30 -122l-269 -277h205l-36 -144h-428z" />
    <glyph glyph-name="braceleft" unicode="{" horiz-adv-x="435" 
d="M284 -139q-111 14 -156.5 48t-45.5 92q0 33 22 88q22 59 22 83q0 54 -85 54h-23l31 122h24q70 0 97 28q31 31 32 111q6 114 55 163q66 64 227 63l11 -110q-80 -6 -110 -36q-19 -19 -25 -46t-7 -79q-4 -84 -38 -118q-37 -38 -115 -47q87 -19 87 -95q0 -32 -21 -83
q-20 -45 -20 -68q0 -25 17.5 -39.5t66.5 -26.5z" />
    <glyph glyph-name="bar" unicode="|" horiz-adv-x="320" 
d="M-3 -118l223 906h134l-224 -906h-133z" />
    <glyph glyph-name="braceright" unicode="}" horiz-adv-x="435" 
d="M158 712q111 -14 156.5 -48t45.5 -92q0 -33 -22 -88q-22 -59 -22 -83q0 -54 85 -54h23l-31 -122h-24q-70 0 -97 -28q-31 -31 -32 -111q-6 -114 -55 -163q-66 -64 -227 -63l-11 110q80 6 110 36q19 19 25 46t7 79q4 84 38 118q37 38 115 47q-87 19 -87 95q0 32 21 83
q20 45 20 68q0 25 -17.5 39.5t-66.5 26.5z" />
    <glyph glyph-name="asciitilde" unicode="~" horiz-adv-x="455" 
d="M117 224l-82 35q24 63 61.5 98.5t80.5 35.5q38 0 76 -27q35 -22 50 -22q33 0 58 52l83 -35q-25 -64 -62.5 -99t-80.5 -35q-38 0 -76 26q-34 22 -50 22q-31 0 -58 -51z" />
    <glyph glyph-name="uni00A0" unicode="&#xa0;" horiz-adv-x="211" 
 />
    <glyph glyph-name="exclamdown" unicode="&#xa1;" horiz-adv-x="298" 
d="M243 470l-40 -408l-16 -62h-208l15 62l157 408h92zM347 700l-42 -169h-188l42 169h188z" />
    <glyph glyph-name="cent" unicode="&#xa2;" horiz-adv-x="505" 
d="M364 705h108l-31 -88q64 -30 99 -97l-117 -84q-33 58 -92 58q-39 0 -70 -31q-25 -25 -39 -66t-14 -80q0 -51 24.5 -76.5t59.5 -25.5q46 0 94 41l83 -103q-77 -81 -191 -81h-14l-26 -78h-108l34 101q-57 27 -88 81.5t-31 130.5q0 70 24.5 137t71.5 113q79 81 198 81h2z
" />
    <glyph glyph-name="sterling" unicode="&#xa3;" horiz-adv-x="551" 
d="M-26 0l29 114l74 28l31 127h-69l34 134h67l17 72q24 109 84 170q66 66 180 66q60 0 110 -24.5t81 -64.5l-116 -118q-34 43 -78 43q-32 0 -51 -21q-21 -21 -33 -67l-12 -56h171l-34 -134h-170l-27 -118h237l-38 -151h-487z" />
    <glyph glyph-name="yen" unicode="&#xa5;" horiz-adv-x="615" 
d="M150 0l23 95h-154l30 118h153l12 51h-153l30 118h113l-94 318h190l48 -234l153 234h211l-249 -318h114l-29 -118h-153l-13 -51h154l-30 -118h-153l-24 -95h-179z" />
    <glyph glyph-name="section" unicode="&#xa7;" horiz-adv-x="553" 
d="M544 364q0 -54 -35 -85.5t-85 -44.5q31 -37 31 -86q0 -68 -56.5 -113.5t-154.5 -45.5q-139 0 -228 84l87 106q71 -63 139 -63q45 0 45 29q0 14 -15.5 24t-66.5 29q-80 29 -118.5 59.5t-38.5 80.5q0 54 34.5 85.5t83.5 44.5q-29 35 -29 85q0 67 56 113t154 46
q141 0 229 -83l-87 -106q-30 26 -68.5 44t-70.5 18q-45 0 -45 -29q0 -14 15.5 -24t65.5 -28q80 -29 119 -59.5t39 -80.5zM196 370q0 -15 15 -27t52 -28q62 -24 87 -24q18 0 32 11t14 29q0 16 -15 27.5t-53 28.5q-64 23 -86 23q-18 0 -32 -11t-14 -29z" />
    <glyph glyph-name="dieresis" unicode="&#xa8;" 
d="M155 584l34 136h151l-34 -136h-151zM350 584l35 136h150l-34 -136h-151z" />
    <glyph glyph-name="copyright" unicode="&#xa9;" horiz-adv-x="729" 
d="M363 150q-69 0 -112.5 45t-43.5 120q0 51 19 100t53 83q59 59 141 59q93 0 137 -82l-83 -57q-26 42 -61 42q-32 0 -57 -25q-18 -18 -29.5 -50t-11.5 -63q0 -36 15.5 -56t43.5 -20q33 0 71 33l58 -69q-64 -60 -140 -60zM707 413q0 -90 -32 -177t-93 -149
q-100 -100 -241 -100q-128 0 -205.5 84t-77.5 216q0 90 32 177.5t93 148.5q100 100 241 100q128 0 205.5 -84t77.5 -216zM99 290q0 -116 65 -190t179 -74q123 0 208 85q57 56 86 137t29 163q1 115 -64 189t-180 74q-123 0 -208 -85q-57 -56 -86 -136.5t-29 -162.5z" />
    <glyph glyph-name="ordfeminine" unicode="&#xaa;" horiz-adv-x="347" 
d="M161 398q-32 0 -52.5 21t-20.5 55q0 46 31.5 79t85.5 33q28 0 64 -13l2 8q3 9 3 17q0 29 -40 29q-34 0 -71 -14l-16 74q51 18 109 18q56 0 85.5 -23.5t29.5 -65.5q0 -17 -6 -44l-41 -168h-97l8 28q-36 -34 -74 -34zM208 460q16 0 29 13.5t18 34.5l4 19q-14 6 -32 6
q-20 0 -32 -14t-12 -32q0 -27 25 -27zM41 278l19 74h258l-19 -74h-258z" />
    <glyph glyph-name="guillemotleft" unicode="&#xab;" horiz-adv-x="569" 
d="M135 34l-109 220l10 38l211 214l88 -78l-141 -170l62 -173zM373 32l-113 228l3 9l229 231l88 -77l-145 -174l59 -166z" />
    <glyph glyph-name="registered" unicode="&#xae;" horiz-adv-x="335" 
d="M253 711q62 0 99.5 -40.5t37.5 -102.5q0 -98 -60 -158q-50 -50 -119 -50q-63 0 -101 40.5t-38 102.5q0 97 61 158q52 50 120 50zM213 378q59 0 102 43q56 56 56 145q0 54 -32 90t-88 36q-62 0 -102 -42q-57 -56 -57 -145q0 -55 32 -91t89 -36zM206 500l-13 -56h-54
l45 189h61q77 0 77 -58q0 -47 -48 -65l23 -66h-57l-19 56h-15zM217 543h17q19 0 27 8q7 9 7 18q0 18 -24 18h-16z" />
    <glyph glyph-name="macron" unicode="&#xaf;" 
d="M160 584l28 110h333l-28 -110h-333z" />
    <glyph glyph-name="degree" unicode="&#xb0;" horiz-adv-x="404" 
d="M267 708q69 0 109 -43t40 -110q0 -94 -62 -156q-49 -49 -121 -49q-69 0 -109.5 43t-40.5 109q0 95 63 156q48 50 121 50zM237 439q27 0 48 21q34 34 34 90q0 31 -15 50t-42 19t-48 -21q-33 -33 -33 -91q0 -31 15 -49.5t41 -18.5z" />
    <glyph glyph-name="plusminus" unicode="&#xb1;" horiz-adv-x="564" 
d="M191 213l38 150l-158 -1l37 146h157l36 149h153l-37 -149h157l-37 -146l-157 1l-35 -150h-154zM-14 15l34 137h466l-35 -137h-465z" />
    <glyph glyph-name="acute" unicode="&#xb4;" 
d="M203 582l139 173l158 -53l-166 -120h-131z" />
    <glyph glyph-name="paragraph" unicode="&#xb6;" horiz-adv-x="532" 
d="M239 0l50 214q-122 8 -178 64q-52 50 -52 140q0 118 77 195q87 87 255 87h196l-171 -700h-177z" />
    <glyph glyph-name="periodcentered" unicode="&#xb7;" horiz-adv-x="278" 
d="M29 219l46 187h189l-47 -187h-188z" />
    <glyph glyph-name="cedilla" unicode="&#xb8;" 
d="M172 -160l-137 57l116 118h121z" />
    <glyph glyph-name="ordmasculine" unicode="&#xba;" horiz-adv-x="353" 
d="M44 278l18 74h252l-19 -74h-251zM185 527q0 -22 10 -36t28 -14q16 0 32 14q29 29 29 82q0 22 -10 36t-28 14t-32 -14q-13 -13 -21 -37t-8 -45zM378 575q0 -82 -55 -137q-42 -42 -104 -42q-60 0 -94 35t-34 94q0 83 55 137q42 44 104 44q60 0 94 -36t34 -95z" />
    <glyph glyph-name="guillemotright" unicode="&#xbb;" horiz-adv-x="569" 
d="M433 503l109 -220l-10 -38l-211 -214l-88 78l141 170l-62 173zM195 505l113 -228l-3 -9l-229 -231l-88 77l145 174l-59 166z" />
    <glyph glyph-name="questiondown" unicode="&#xbf;" horiz-adv-x="481" 
d="M375 470l-18 -173l-9 -8q-159 -16 -159 -88q0 -47 54 -47q51 0 116 45l69 -137q-96 -71 -215 -71q-96 0 -153 49.5t-57 126.5q0 174 225 221l31 82h116zM468 700l-43 -169h-188l43 169h188z" />
    <glyph glyph-name="Agrave" unicode="&#xc0;" horiz-adv-x="669" 
d="M-67 0l417 704h186l73 -704h-190l-9 128h-211l-70 -128h-196zM284 275h115l-10 206zM388 748l-113 101l172 50l64 -151h-123z" />
    <glyph glyph-name="Aacute" unicode="&#xc1;" horiz-adv-x="669" 
d="M-67 0l417 704h186l73 -704h-190l-9 128h-211l-70 -128h-196zM284 275h115l-10 206zM381 748l136 151l166 -50l-161 -101h-141z" />
    <glyph glyph-name="Acircumflex" unicode="&#xc2;" horiz-adv-x="669" 
d="M-67 0l417 704h186l73 -704h-190l-9 128h-211l-70 -128h-196zM284 275h115l-10 206zM258 747l145 140h158l76 -140h-113l-57 50l-82 -50h-127z" />
    <glyph glyph-name="Atilde" unicode="&#xc3;" horiz-adv-x="669" 
d="M-67 0l417 704h186l73 -704h-190l-9 128h-211l-70 -128h-196zM284 275h115l-10 206zM347 743l-86 25q26 70 56.5 103t76.5 33q36 0 89 -21q38 -16 54 -16q19 0 30.5 9.5t24.5 32.5l86 -24q-26 -70 -57 -103.5t-77 -33.5q-32 0 -89 21q-41 17 -54 17q-18 0 -29.5 -10
t-24.5 -33z" />
    <glyph glyph-name="Adieresis" unicode="&#xc4;" horiz-adv-x="669" 
d="M-67 0l417 704h186l73 -704h-190l-9 128h-211l-70 -128h-196zM284 275h115l-10 206zM282 750l32 130h152l-33 -130h-151zM479 750l33 130h152l-33 -130h-152z" />
    <glyph glyph-name="Aring" unicode="&#xc5;" horiz-adv-x="669" 
d="M-67 0l400 677q-13 22 -13 49q0 52 40 90t103 38q50 0 83.5 -29.5t33.5 -71.5q0 -53 -39 -90l68 -663h-190l-9 128h-211l-70 -128h-196zM443 680q33 0 52.5 20.5t19.5 45.5q0 23 -16 37.5t-42 14.5q-33 0 -52.5 -20.5t-19.5 -45.5q0 -23 16 -37.5t42 -14.5zM284 275h115
l-10 206z" />
    <glyph glyph-name="AE" unicode="&#xc6;" horiz-adv-x="915" 
d="M-74 0l466 700h589l-41 -159h-281l-26 -114h253l-38 -150h-253l-28 -118h288l-41 -159h-466l31 128h-178l-80 -128h-195zM301 275h115l65 273h-12z" />
    <glyph glyph-name="Ccedilla" unicode="&#xc7;" horiz-adv-x="608" 
d="M244 -160l-137 57l108 110q-82 30 -128.5 101t-46.5 172q0 91 32.5 179t94.5 150q105 103 251 103q79 0 142 -36t100 -99l-142 -109q-25 38 -50.5 56.5t-61.5 18.5q-56 0 -100 -46q-35 -34 -55.5 -91t-20.5 -113q0 -63 30.5 -99.5t80.5 -36.5q57 0 118 55l102 -125
q-99 -99 -232 -99h-1z" />
    <glyph glyph-name="Egrave" unicode="&#xc8;" horiz-adv-x="571" 
d="M337 740l-113 101l172 50l64 -151h-123zM-16 0l171 700h479l-40 -159h-297l-26 -114h267l-38 -150h-267l-28 -118h303l-41 -159h-483z" />
    <glyph glyph-name="Eacute" unicode="&#xc9;" horiz-adv-x="571" 
d="M329 740l136 151l166 -50l-161 -101h-141zM-16 0l171 700h479l-40 -159h-297l-26 -114h267l-38 -150h-267l-28 -118h303l-41 -159h-483z" />
    <glyph glyph-name="Ecircumflex" unicode="&#xca;" horiz-adv-x="571" 
d="M-16 0l171 700h479l-40 -159h-297l-26 -114h267l-38 -150h-267l-28 -118h303l-41 -159h-483zM208 741l145 140h158l76 -140h-113l-57 50l-82 -50h-127z" />
    <glyph glyph-name="Edieresis" unicode="&#xcb;" horiz-adv-x="571" 
d="M230 742l32 130h152l-33 -130h-151zM427 742l33 130h152l-33 -130h-152zM-16 0l171 700h479l-40 -159h-297l-26 -114h267l-38 -150h-267l-28 -118h303l-41 -159h-483z" />
    <glyph glyph-name="Igrave" unicode="&#xcc;" horiz-adv-x="293" 
d="M-12 0l172 700h183l-171 -700h-184zM195 740l-113 101l172 50l64 -151h-123z" />
    <glyph glyph-name="Iacute" unicode="&#xcd;" horiz-adv-x="293" 
d="M-12 0l172 700h183l-171 -700h-184zM189 740l136 151l166 -50l-161 -101h-141z" />
    <glyph glyph-name="Icircumflex" unicode="&#xce;" horiz-adv-x="293" 
d="M-12 0l172 700h183l-171 -700h-184zM66 741l145 140h158l76 -140h-113l-57 50l-82 -50h-127z" />
    <glyph glyph-name="Idieresis" unicode="&#xcf;" horiz-adv-x="293" 
d="M-12 0l172 700h183l-171 -700h-184zM89 742l32 130h152l-33 -130h-151zM286 742l33 130h152l-33 -130h-152z" />
    <glyph glyph-name="Eth" unicode="&#xd0;" horiz-adv-x="689" 
d="M12 278l37 148h72l67 274h186q162 0 243 -79q71 -71 71 -202q0 -80 -31 -164.5t-89 -142.5q-112 -112 -319 -112h-232l68 278h-73zM471 505q-33 35 -107 35h-37l-27 -115h86l-37 -146h-84l-28 -119h36q103 0 160 58q34 33 53 86.5t19 102.5q0 66 -34 98z" />
    <glyph glyph-name="Ntilde" unicode="&#xd1;" horiz-adv-x="676" 
d="M343 735l-86 25q26 70 56.5 103t76.5 33q37 0 89 -21q38 -16 54 -16q19 0 30.5 9.5t24.5 32.5l86 -24q-26 -70 -57 -103.5t-77 -33.5q-32 0 -89 21q-41 17 -54 17q-18 0 -29.5 -10t-24.5 -33zM-16 0l171 700h173l131 -377l91 377h181l-171 -700h-163l-138 392l-94 -392
h-181z" />
    <glyph glyph-name="Ograve" unicode="&#xd2;" horiz-adv-x="694" 
d="M390 748l-113 101l172 50l64 -151h-123zM412 713q126 0 203 -79t77 -210q0 -90 -34 -182.5t-96 -153.5q-101 -101 -242 -101q-126 0 -203 79t-77 210q0 90 34 182.5t96 154.5q100 100 242 100zM336 153q51 0 92 41q35 35 56.5 98.5t21.5 118.5q0 65 -28.5 100.5
t-81.5 35.5t-92 -41q-35 -35 -56.5 -99t-21.5 -118q0 -65 28.5 -100.5t81.5 -35.5z" />
    <glyph glyph-name="Oacute" unicode="&#xd3;" horiz-adv-x="694" 
d="M376 748l136 151l166 -50l-161 -101h-141zM412 713q126 0 203 -79t77 -210q0 -90 -34 -182.5t-96 -153.5q-101 -101 -242 -101q-126 0 -203 79t-77 210q0 90 34 182.5t96 154.5q100 100 242 100zM336 153q51 0 92 41q35 35 56.5 98.5t21.5 118.5q0 65 -28.5 100.5
t-81.5 35.5t-92 -41q-35 -35 -56.5 -99t-21.5 -118q0 -65 28.5 -100.5t81.5 -35.5z" />
    <glyph glyph-name="Ocircumflex" unicode="&#xd4;" horiz-adv-x="694" 
d="M412 713q126 0 203 -79t77 -210q0 -90 -34 -182.5t-96 -153.5q-101 -101 -242 -101q-126 0 -203 79t-77 210q0 90 34 182.5t96 154.5q100 100 242 100zM336 153q51 0 92 41q35 35 56.5 98.5t21.5 118.5q0 65 -28.5 100.5t-81.5 35.5t-92 -41q-35 -35 -56.5 -99
t-21.5 -118q0 -65 28.5 -100.5t81.5 -35.5zM261 749l145 140h158l76 -140h-113l-57 50l-82 -50h-127z" />
    <glyph glyph-name="Otilde" unicode="&#xd5;" horiz-adv-x="694" 
d="M349 743l-86 25q26 70 56.5 103t76.5 33q36 0 89 -21q38 -16 54 -16q19 0 30.5 9.5t24.5 32.5l86 -24q-26 -70 -57 -103.5t-77 -33.5q-32 0 -89 21q-41 17 -54 17q-18 0 -29.5 -10t-24.5 -33zM412 713q126 0 203 -79t77 -210q0 -90 -34 -182.5t-96 -153.5
q-101 -101 -242 -101q-126 0 -203 79t-77 210q0 90 34 182.5t96 154.5q100 100 242 100zM336 153q51 0 92 41q35 35 56.5 98.5t21.5 118.5q0 65 -28.5 100.5t-81.5 35.5t-92 -41q-35 -35 -56.5 -99t-21.5 -118q0 -65 28.5 -100.5t81.5 -35.5z" />
    <glyph glyph-name="Odieresis" unicode="&#xd6;" horiz-adv-x="694" 
d="M284 750l32 130h152l-33 -130h-151zM481 750l33 130h152l-33 -130h-152zM412 713q126 0 203 -79t77 -210q0 -90 -34 -182.5t-96 -153.5q-101 -101 -242 -101q-126 0 -203 79t-77 210q0 90 34 182.5t96 154.5q100 100 242 100zM336 153q51 0 92 41q35 35 56.5 98.5
t21.5 118.5q0 65 -28.5 100.5t-81.5 35.5t-92 -41q-35 -35 -56.5 -99t-21.5 -118q0 -65 28.5 -100.5t81.5 -35.5z" />
    <glyph glyph-name="multiply" unicode="&#xd7;" horiz-adv-x="564" 
d="M126 113l-92 120l162 128l-96 127l129 101l92 -130l160 132l92 -120l-162 -127l96 -127l-129 -102l-92 129z" />
    <glyph glyph-name="Oslash" unicode="&#xd8;" horiz-adv-x="694" 
d="M412 713q107 0 180 -59l49 51h131l-120 -122q40 -68 40 -159q0 -90 -34 -182.5t-96 -153.5q-101 -101 -242 -101q-109 0 -182 59l-47 -51h-131l118 122q-38 67 -38 159q0 90 34 182.5t96 154.5q100 100 242 100zM335 146q54 0 96 44q36 35 58.5 100t22.5 123q0 11 -2 31
l-249 -273q26 -25 74 -25zM220 287q0 -19 1 -27l247 271q-28 23 -71 23q-55 0 -96 -43q-36 -36 -58.5 -101.5t-22.5 -122.5z" />
    <glyph glyph-name="Ugrave" unicode="&#xd9;" horiz-adv-x="658" 
d="M374 740l-113 101l172 50l64 -151h-123zM290 -12q-117 0 -182 57t-65 159q0 47 16 113l92 383h185l-96 -397q-10 -43 -10 -69q0 -38 21.5 -59t59.5 -21q45 0 72 27q30 30 47 97l102 422h184l-107 -444q-33 -127 -96 -190q-76 -78 -223 -78z" />
    <glyph glyph-name="Uacute" unicode="&#xda;" horiz-adv-x="658" 
d="M368 740l136 151l166 -50l-161 -101h-141zM290 -12q-117 0 -182 57t-65 159q0 47 16 113l92 383h185l-96 -397q-10 -43 -10 -69q0 -38 21.5 -59t59.5 -21q45 0 72 27q30 30 47 97l102 422h184l-107 -444q-33 -127 -96 -190q-76 -78 -223 -78z" />
    <glyph glyph-name="Ucircumflex" unicode="&#xdb;" horiz-adv-x="658" 
d="M290 -12q-117 0 -182 57t-65 159q0 47 16 113l92 383h185l-96 -397q-10 -43 -10 -69q0 -38 21.5 -59t59.5 -21q45 0 72 27q30 30 47 97l102 422h184l-107 -444q-33 -127 -96 -190q-76 -78 -223 -78zM245 741l145 140h158l76 -140h-113l-57 50l-82 -50h-127z" />
    <glyph glyph-name="Udieresis" unicode="&#xdc;" horiz-adv-x="658" 
d="M267 742l32 130h152l-33 -130h-151zM464 742l33 130h152l-33 -130h-152zM290 -12q-117 0 -182 57t-65 159q0 47 16 113l92 383h185l-96 -397q-10 -43 -10 -69q0 -38 21.5 -59t59.5 -21q45 0 72 27q30 30 47 97l102 422h184l-107 -444q-33 -127 -96 -190q-76 -78 -223 -78
z" />
    <glyph glyph-name="Yacute" unicode="&#xdd;" horiz-adv-x="585" 
d="M128 0l65 271l-109 429h195l45 -257l169 257h213l-332 -444l-63 -256h-183zM321 740l136 151l166 -50l-161 -101h-141z" />
    <glyph glyph-name="Thorn" unicode="&#xde;" horiz-adv-x="596" 
d="M-16 0l171 700h184l-24 -97h5q151 0 218 -68q54 -53 54 -143q0 -119 -75 -194q-89 -89 -246 -89h-77l-26 -109h-184zM231 257h43q66 0 100 34q32 32 32 84q0 33 -20 53q-22 23 -71 23h-39z" />
    <glyph glyph-name="germandbls" unicode="&#xdf;" horiz-adv-x="566" 
d="M203 -2l34 133q57 1 87 28.5t30 68.5q0 62 -77 73l26 103q50 11 76 43t26 73q0 29 -14.5 45t-36.5 16q-56 0 -78 -87l-119 -494h-179l120 496q28 110 84 168q68 66 180 66q98 0 155.5 -51.5t57.5 -133.5q0 -71 -36 -124.5t-105 -76.5q90 -40 90 -132q0 -102 -84 -165.5
t-237 -48.5z" />
    <glyph glyph-name="agrave" unicode="&#xe0;" horiz-adv-x="526" 
d="M126 -10q-60 0 -95.5 38t-35.5 101q0 91 55 146q56 56 158 56q54 0 114 -21l2 8q5 20 5 38q0 52 -76 52q-61 0 -124 -26l-29 136q88 32 191 32q106 0 161.5 -41.5t55.5 -117.5q0 -39 -13 -89l-72 -302h-177l12 52q-62 -62 -132 -62zM211 102q29 0 51.5 25t31.5 61l9 38
q-28 11 -56 11q-35 0 -55 -21q-25 -23 -25 -65q0 -49 44 -49zM279 586l-108 120l165 53l57 -173h-114z" />
    <glyph glyph-name="aacute" unicode="&#xe1;" horiz-adv-x="526" 
d="M126 -10q-60 0 -95.5 38t-35.5 101q0 91 55 146q56 56 158 56q54 0 114 -21l2 8q5 20 5 38q0 52 -76 52q-61 0 -124 -26l-29 136q88 32 191 32q106 0 161.5 -41.5t55.5 -117.5q0 -39 -13 -89l-72 -302h-177l12 52q-62 -62 -132 -62zM211 102q29 0 51.5 25t31.5 61l9 38
q-28 11 -56 11q-35 0 -55 -21q-25 -23 -25 -65q0 -49 44 -49zM269 586l139 173l158 -53l-166 -120h-131z" />
    <glyph glyph-name="acircumflex" unicode="&#xe2;" horiz-adv-x="526" 
d="M126 -10q-60 0 -95.5 38t-35.5 101q0 91 55 146q56 56 158 56q54 0 114 -21l2 8q5 20 5 38q0 52 -76 52q-61 0 -124 -26l-29 136q88 32 191 32q106 0 161.5 -41.5t55.5 -117.5q0 -39 -13 -89l-72 -302h-177l12 52q-62 -62 -132 -62zM211 102q29 0 51.5 25t31.5 61l9 38
q-28 11 -56 11q-35 0 -55 -21q-25 -23 -25 -65q0 -49 44 -49zM145 587l152 155h146l75 -155h-108l-58 60l-86 -60h-121z" />
    <glyph glyph-name="atilde" unicode="&#xe3;" horiz-adv-x="526" 
d="M126 -10q-60 0 -95.5 38t-35.5 101q0 91 55 146q56 56 158 56q54 0 114 -21l2 8q5 20 5 38q0 52 -76 52q-61 0 -124 -26l-29 136q88 32 191 32q106 0 161.5 -41.5t55.5 -117.5q0 -39 -13 -89l-72 -302h-177l12 52q-62 -62 -132 -62zM211 102q29 0 51.5 25t31.5 61l9 38
q-28 11 -56 11q-35 0 -55 -21q-25 -23 -25 -65q0 -49 44 -49zM468 748l86 -25q-26 -70 -56 -103.5t-75 -33.5q-35 0 -83 22q-41 17 -53 17q-17 0 -28 -10t-24 -34l-86 25q26 70 56.5 103.5t74.5 33.5q33 0 83 -21q37 -17 53 -17q17 0 28 10t24 33z" />
    <glyph glyph-name="adieresis" unicode="&#xe4;" horiz-adv-x="526" 
d="M126 -10q-60 0 -95.5 38t-35.5 101q0 91 55 146q56 56 158 56q54 0 114 -21l2 8q5 20 5 38q0 52 -76 52q-61 0 -124 -26l-29 136q88 32 191 32q106 0 161.5 -41.5t55.5 -117.5q0 -39 -13 -89l-72 -302h-177l12 52q-62 -62 -132 -62zM211 102q29 0 51.5 25t31.5 61l9 38
q-28 11 -56 11q-35 0 -55 -21q-25 -23 -25 -65q0 -49 44 -49zM165 588l34 136h151l-34 -136h-151zM360 588l35 136h150l-34 -136h-151z" />
    <glyph glyph-name="aring" unicode="&#xe5;" horiz-adv-x="526" 
d="M126 -10q-60 0 -95.5 38t-35.5 101q0 91 55 146q56 56 158 56q54 0 114 -21l2 8q5 20 5 38q0 52 -76 52q-61 0 -124 -26l-29 136q88 32 191 32q106 0 161.5 -41.5t55.5 -117.5q0 -39 -13 -89l-72 -302h-177l12 52q-62 -62 -132 -62zM211 102q29 0 51.5 25t31.5 61l9 38
q-28 11 -56 11q-35 0 -55 -21q-25 -23 -25 -65q0 -49 44 -49zM486 719q0 -53 -37 -92.5t-94 -39.5q-48 0 -78 28.5t-30 73.5q0 53 37.5 92.5t93.5 39.5q48 0 78 -29t30 -73zM310 693q0 -23 13.5 -37.5t35.5 -14.5q28 0 46.5 22t18.5 52q0 23 -13.5 37.5t-35.5 14.5
q-28 0 -46.5 -22t-18.5 -52z" />
    <glyph glyph-name="ae" unicode="&#xe6;" horiz-adv-x="813" 
d="M533 -12q-129 0 -185 93q-85 -91 -199 -91q-75 0 -114.5 38t-39.5 104q0 88 55 143q56 56 158 56q54 0 114 -21l2 8q5 25 5 38q0 52 -76 52q-61 0 -124 -26l-29 136q88 32 191 32q110 0 155 -58q72 62 160 62q91 0 142 -59t51 -151q0 -60 -23 -129h-309q2 -42 23.5 -65
t59.5 -23q50 0 106 39l70 -113q-82 -65 -193 -65zM219 103q23 0 49.5 15.5t47.5 39.5q-6 32 -5 65q-28 14 -62 14q-37 0 -57 -21q-24 -22 -24 -63q0 -50 51 -50zM522 391q-26 -26 -42 -78h153q5 22 5 42q0 28 -14.5 45.5t-41.5 17.5q-31 0 -60 -27z" />
    <glyph glyph-name="ccedilla" unicode="&#xe7;" horiz-adv-x="477" 
d="M171 -160l-137 57l109 111q-58 25 -90.5 79t-32.5 129q0 71 25.5 139t74.5 117q81 81 194 81q136 0 194 -114l-128 -92q-30 54 -69 54q-35 0 -61 -28q-25 -24 -39.5 -65t-14.5 -81q0 -42 18 -64.5t47 -22.5q35 0 79 39l93 -107q-73 -80 -178 -84z" />
    <glyph glyph-name="egrave" unicode="&#xe8;" horiz-adv-x="532" 
d="M496 215h-309q2 -42 23 -65t60 -23q49 0 106 39l70 -113q-82 -65 -192 -65q-109 0 -171 63t-62 172q0 69 26.5 136.5t74.5 115.5q79 79 193 79q98 0 150.5 -58.5t52.5 -151.5q0 -63 -22 -129zM287 586l-108 120l165 53l57 -173h-114zM242 391q-28 -28 -42 -78h152
q6 22 6 42q0 28 -15 45.5t-41 17.5q-33 0 -60 -27z" />
    <glyph glyph-name="eacute" unicode="&#xe9;" horiz-adv-x="532" 
d="M496 215h-309q2 -42 23 -65t60 -23q49 0 106 39l70 -113q-82 -65 -192 -65q-109 0 -171 63t-62 172q0 69 26.5 136.5t74.5 115.5q79 79 193 79q98 0 150.5 -58.5t52.5 -151.5q0 -63 -22 -129zM277 586l139 173l158 -53l-166 -120h-131zM242 391q-28 -28 -42 -78h152
q6 22 6 42q0 28 -15 45.5t-41 17.5q-33 0 -60 -27z" />
    <glyph glyph-name="ecircumflex" unicode="&#xea;" horiz-adv-x="532" 
d="M496 215h-309q2 -42 23 -65t60 -23q49 0 106 39l70 -113q-82 -65 -192 -65q-109 0 -171 63t-62 172q0 69 26.5 136.5t74.5 115.5q79 79 193 79q98 0 150.5 -58.5t52.5 -151.5q0 -63 -22 -129zM153 587l152 155h146l75 -155h-108l-58 60l-86 -60h-121zM242 391
q-28 -28 -42 -78h152q6 22 6 42q0 28 -15 45.5t-41 17.5q-33 0 -60 -27z" />
    <glyph glyph-name="edieresis" unicode="&#xeb;" horiz-adv-x="532" 
d="M496 215h-309q2 -42 23 -65t60 -23q49 0 106 39l70 -113q-82 -65 -192 -65q-109 0 -171 63t-62 172q0 69 26.5 136.5t74.5 115.5q79 79 193 79q98 0 150.5 -58.5t52.5 -151.5q0 -63 -22 -129zM173 588l34 136h151l-34 -136h-151zM368 588l35 136h150l-34 -136h-151z
M242 391q-28 -28 -42 -78h152q6 22 6 42q0 28 -15 45.5t-41 17.5q-33 0 -60 -27z" />
    <glyph glyph-name="igrave" unicode="&#xec;" horiz-adv-x="272" 
d="M-20 0l132 543h180l-132 -543h-180zM153 582l-108 120l165 53l57 -173h-114z" />
    <glyph glyph-name="iacute" unicode="&#xed;" horiz-adv-x="272" 
d="M145 582l139 173l158 -53l-166 -120h-131zM-20 0l132 543h180l-132 -543h-180z" />
    <glyph glyph-name="icircumflex" unicode="&#xee;" horiz-adv-x="272" 
d="M21 583l152 155h146l75 -155h-108l-58 60l-86 -60h-121zM-20 0l132 543h180l-132 -543h-180z" />
    <glyph glyph-name="idieresis" unicode="&#xef;" horiz-adv-x="272" 
d="M41 584l34 136h151l-34 -136h-151zM236 584l35 136h150l-34 -136h-151zM-20 0l132 543h180l-132 -543h-180z" />
    <glyph glyph-name="eth" unicode="&#xf0;" horiz-adv-x="571" 
d="M225 569l-22 76l75 18q-32 35 -59 61h205l18 -22l99 24l22 -76l-74 -18q63 -110 63 -241q0 -93 -30.5 -181.5t-84.5 -142.5q-79 -79 -188 -79q-105 0 -165 63t-60 168q0 71 26 143t71 117q66 66 151 66q63 0 107 -45q-14 42 -48 94zM259 138q33 0 56 25q24 23 39.5 68
t15.5 88q0 41 -17 64t-47 23q-32 0 -59 -27q-22 -22 -37.5 -66.5t-15.5 -87.5q0 -41 17 -64t48 -23z" />
    <glyph glyph-name="ntilde" unicode="&#xf1;" horiz-adv-x="554" 
d="M-24 0l133 543h179l-14 -57q62 68 137 68q62 0 97.5 -37.5t35.5 -102.5q0 -32 -14 -95l-77 -319h-180l73 301q7 28 7 48q0 45 -45 45q-58 0 -76 -80l-76 -314h-180zM483 748l86 -25q-26 -70 -56 -103.5t-75 -33.5q-35 0 -83 22q-41 17 -53 17q-17 0 -28 -10t-24 -34
l-86 25q26 70 56.5 103.5t74.5 33.5q33 0 83 -21q37 -17 53 -17q17 0 28 10t24 33z" />
    <glyph glyph-name="ograve" unicode="&#xf2;" horiz-adv-x="564" 
d="M312 554q107 0 168.5 -64.5t61.5 -169.5q0 -70 -26 -138t-72 -114q-78 -80 -191 -80q-107 0 -168.5 64.5t-61.5 169.5q0 71 25.5 138.5t72.5 114.5q79 79 191 79zM262 138q32 0 55 25q24 23 38.5 66t14.5 84q0 44 -18 67.5t-50 23.5q-31 0 -55 -24q-23 -23 -38 -67
t-15 -84q0 -44 18.5 -67.5t49.5 -23.5zM299 586l-108 120l165 53l57 -173h-114z" />
    <glyph glyph-name="oacute" unicode="&#xf3;" horiz-adv-x="564" 
d="M281 586l139 173l158 -53l-166 -120h-131zM312 554q107 0 168.5 -64.5t61.5 -169.5q0 -70 -26 -138t-72 -114q-78 -80 -191 -80q-107 0 -168.5 64.5t-61.5 169.5q0 71 25.5 138.5t72.5 114.5q79 79 191 79zM262 138q32 0 55 25q24 23 38.5 66t14.5 84q0 44 -18 67.5
t-50 23.5q-31 0 -55 -24q-23 -23 -38 -67t-15 -84q0 -44 18.5 -67.5t49.5 -23.5z" />
    <glyph glyph-name="ocircumflex" unicode="&#xf4;" horiz-adv-x="564" 
d="M165 587l152 155h146l75 -155h-108l-58 60l-86 -60h-121zM312 554q107 0 168.5 -64.5t61.5 -169.5q0 -70 -26 -138t-72 -114q-78 -80 -191 -80q-107 0 -168.5 64.5t-61.5 169.5q0 71 25.5 138.5t72.5 114.5q79 79 191 79zM262 138q32 0 55 25q24 23 38.5 66t14.5 84
q0 44 -18 67.5t-50 23.5q-31 0 -55 -24q-23 -23 -38 -67t-15 -84q0 -44 18.5 -67.5t49.5 -23.5z" />
    <glyph glyph-name="otilde" unicode="&#xf5;" horiz-adv-x="564" 
d="M312 554q107 0 168.5 -64.5t61.5 -169.5q0 -70 -26 -138t-72 -114q-78 -80 -191 -80q-107 0 -168.5 64.5t-61.5 169.5q0 71 25.5 138.5t72.5 114.5q79 79 191 79zM262 138q32 0 55 25q24 23 38.5 66t14.5 84q0 44 -18 67.5t-50 23.5q-31 0 -55 -24q-23 -23 -38 -67
t-15 -84q0 -44 18.5 -67.5t49.5 -23.5zM488 748l86 -25q-26 -70 -56 -103.5t-75 -33.5q-35 0 -83 22q-41 17 -53 17q-17 0 -28 -10t-24 -34l-86 25q26 70 56.5 103.5t74.5 33.5q33 0 83 -21q37 -17 53 -17q17 0 28 10t24 33z" />
    <glyph glyph-name="odieresis" unicode="&#xf6;" horiz-adv-x="564" 
d="M185 588l34 136h151l-34 -136h-151zM380 588l35 136h150l-34 -136h-151zM312 554q107 0 168.5 -64.5t61.5 -169.5q0 -70 -26 -138t-72 -114q-78 -80 -191 -80q-107 0 -168.5 64.5t-61.5 169.5q0 71 25.5 138.5t72.5 114.5q79 79 191 79zM262 138q32 0 55 25
q24 23 38.5 66t14.5 84q0 44 -18 67.5t-50 23.5q-31 0 -55 -24q-23 -23 -38 -67t-15 -84q0 -44 18.5 -67.5t49.5 -23.5z" />
    <glyph glyph-name="divide" unicode="&#xf7;" horiz-adv-x="564" 
d="M149 73l37 151h167l-38 -151h-166zM47 279l37 146h471l-37 -146h-471zM249 480l39 151h166l-38 -151h-167z" />
    <glyph glyph-name="oslash" unicode="&#xf8;" horiz-adv-x="565" 
d="M312 555q88 0 147 -46l38 38h119l-103 -102q29 -53 29 -125q0 -70 -25.5 -137.5t-71.5 -114.5q-82 -80 -192 -80q-88 0 -147 46l-38 -39h-119l103 102q-29 55 -29 126q0 70 26 138t72 114q80 80 191 80zM323 159q24 25 39 68.5t15 85.5v6l-160 -173q19 -14 44 -14
q35 0 62 27zM305 411q-35 0 -62 -27q-24 -24 -39.5 -68.5t-15.5 -85.5v-7l159 174q-17 14 -42 14z" />
    <glyph glyph-name="ugrave" unicode="&#xf9;" horiz-adv-x="556" 
d="M147 -11q-62 0 -97 37.5t-35 102.5q0 39 14 95l77 319h180l-73 -301q-7 -27 -7 -48q0 -45 45 -45q58 0 76 80l76 314h179l-132 -543h-179l14 58q-61 -69 -138 -69zM296 582l-108 120l165 53l57 -173h-114z" />
    <glyph glyph-name="uacute" unicode="&#xfa;" horiz-adv-x="556" 
d="M285 582l139 173l158 -53l-166 -120h-131zM147 -11q-62 0 -97 37.5t-35 102.5q0 39 14 95l77 319h180l-73 -301q-7 -27 -7 -48q0 -45 45 -45q58 0 76 80l76 314h179l-132 -543h-179l14 58q-61 -69 -138 -69z" />
    <glyph glyph-name="ucircumflex" unicode="&#xfb;" horiz-adv-x="556" 
d="M162 583l152 155h146l75 -155h-108l-58 60l-86 -60h-121zM147 -11q-62 0 -97 37.5t-35 102.5q0 39 14 95l77 319h180l-73 -301q-7 -27 -7 -48q0 -45 45 -45q58 0 76 80l76 314h179l-132 -543h-179l14 58q-61 -69 -138 -69z" />
    <glyph glyph-name="udieresis" unicode="&#xfc;" horiz-adv-x="556" 
d="M181 584l34 136h151l-34 -136h-151zM376 584l35 136h150l-34 -136h-151zM147 -11q-62 0 -97 37.5t-35 102.5q0 39 14 95l77 319h180l-73 -301q-7 -27 -7 -48q0 -45 45 -45q58 0 76 80l76 314h179l-132 -543h-179l14 58q-61 -69 -138 -69z" />
    <glyph glyph-name="yacute" unicode="&#xfd;" horiz-adv-x="544" 
d="M127 6l-48 537h181l5 -324l150 324h188l-293 -538q-47 -86 -95 -122t-118 -36q-77 0 -132 42l70 126q32 -25 61 -25q18 0 31 16zM277 582l139 173l158 -53l-166 -120h-131z" />
    <glyph glyph-name="thorn" unicode="&#xfe;" horiz-adv-x="588" 
d="M332 724l-57 -236q64 67 135 67q68 0 113 -54t45 -150q0 -81 -28.5 -162.5t-77.5 -131.5q-68 -68 -153 -68q-91 0 -137 80l-53 -219h-180l214 874h179zM272 140q34 0 60 27q24 24 39 66t15 85q0 41 -17 64t-50 23t-60 -27q-25 -25 -39.5 -67.5t-14.5 -83.5t18 -64t49 -23
z" />
    <glyph glyph-name="ydieresis" unicode="&#xff;" horiz-adv-x="544" 
d="M127 6l-48 537h181l5 -324l150 324h188l-293 -538q-47 -86 -95 -122t-118 -36q-77 0 -132 42l70 126q32 -25 61 -25q18 0 31 16zM174 584l34 136h151l-34 -136h-151zM369 584l35 136h150l-34 -136h-151z" />
    <glyph glyph-name="Amacron" unicode="&#x100;" horiz-adv-x="669" 
d="M-67 0l417 704h186l73 -704h-190l-9 128h-211l-70 -128h-196zM284 275h115l-10 206zM277 752l29 112h356l-28 -112h-357z" />
    <glyph glyph-name="amacron" unicode="&#x101;" horiz-adv-x="526" 
d="M126 -10q-60 0 -95.5 38t-35.5 101q0 91 55 146q56 56 158 56q54 0 114 -21l2 8q5 20 5 38q0 52 -76 52q-61 0 -124 -26l-29 136q88 32 191 32q106 0 161.5 -41.5t55.5 -117.5q0 -39 -13 -89l-72 -302h-177l12 52q-62 -62 -132 -62zM211 102q29 0 51.5 25t31.5 61l9 38
q-28 11 -56 11q-35 0 -55 -21q-25 -23 -25 -65q0 -49 44 -49zM171 588l28 110h333l-28 -110h-333z" />
    <glyph glyph-name="Abreve" unicode="&#x102;" horiz-adv-x="669" 
d="M-67 0l417 704h186l73 -704h-190l-9 128h-211l-70 -128h-196zM284 275h115l-10 206zM454 747q-76 0 -115.5 36t-30.5 104h102q8 -41 64 -41q51 0 78 41h112q-25 -69 -79.5 -104.5t-130.5 -35.5z" />
    <glyph glyph-name="abreve" unicode="&#x103;" horiz-adv-x="526" 
d="M126 -10q-60 0 -95.5 38t-35.5 101q0 91 55 146q56 56 158 56q54 0 114 -21l2 8q5 20 5 38q0 52 -76 52q-61 0 -124 -26l-29 136q88 32 191 32q106 0 161.5 -41.5t55.5 -117.5q0 -39 -13 -89l-72 -302h-177l12 52q-62 -62 -132 -62zM211 102q29 0 51.5 25t31.5 61l9 38
q-28 11 -56 11q-35 0 -55 -21q-25 -23 -25 -65q0 -49 44 -49zM350 585q-78 0 -119.5 41t-40.5 113h107q2 -23 17 -38t42 -15q55 0 85 53h107q-21 -71 -73 -112.5t-125 -41.5z" />
    <glyph glyph-name="Aogonek" unicode="&#x104;" horiz-adv-x="669" 
d="M605 -73l-19 -79q-29 -4 -63 -4q-55 -1 -85 15.5t-30 47.5q0 43 61 93h-50l-9 128h-211l-70 -128h-196l417 704h186l73 -704h-29q-30 -34 -30 -50q0 -23 55 -23zM284 275h115l-10 206z" />
    <glyph glyph-name="aogonek" unicode="&#x105;" horiz-adv-x="526" 
d="M418 -73l-19 -79q-29 -4 -63 -4q-55 -1 -85 15.5t-30 47.5q0 43 61 93h-36l12 52q-62 -62 -132 -62q-60 0 -95.5 38t-35.5 101q0 91 55 146q56 56 158 56q54 0 114 -21l2 8q5 20 5 38q0 52 -76 52q-61 0 -124 -26l-29 136q88 32 191 32q106 0 161.5 -41.5t55.5 -117.5
q0 -39 -13 -89l-72 -302h-30q-30 -34 -30 -50q0 -23 55 -23zM211 102q29 0 51.5 25t31.5 61l9 38q-28 11 -56 11q-35 0 -55 -21q-25 -23 -25 -65q0 -49 44 -49z" />
    <glyph glyph-name="Cacute" unicode="&#x106;" horiz-adv-x="608" 
d="M329 -12q-131 0 -210 79t-79 213q0 91 32.5 179t94.5 150q105 103 251 103q79 0 142 -36t100 -99l-142 -109q-25 38 -50.5 56.5t-61.5 18.5q-56 0 -100 -46q-35 -34 -55.5 -91t-20.5 -113q0 -63 30.5 -99.5t80.5 -36.5q57 0 118 55l102 -125q-99 -99 -232 -99zM376 748
l136 151l166 -50l-161 -101h-141z" />
    <glyph glyph-name="cacute" unicode="&#x107;" horiz-adv-x="477" 
d="M265 586l139 173l158 -53l-166 -120h-131zM244 -12q-101 0 -162.5 61.5t-61.5 166.5q0 71 25.5 139t74.5 117q81 81 194 81q136 0 194 -114l-128 -92q-30 54 -69 54q-35 0 -61 -28q-25 -24 -39.5 -65t-14.5 -81q0 -42 18 -64.5t47 -22.5q35 0 79 39l93 -107
q-77 -84 -189 -84z" />
    <glyph glyph-name="Cdotaccent" unicode="&#x10a;" horiz-adv-x="608" 
d="M372 750l33 130h157l-33 -130h-157zM329 -12q-131 0 -210 79t-79 213q0 91 32.5 179t94.5 150q105 103 251 103q79 0 142 -36t100 -99l-142 -109q-25 38 -50.5 56.5t-61.5 18.5q-56 0 -100 -46q-35 -34 -55.5 -91t-20.5 -113q0 -63 30.5 -99.5t80.5 -36.5q57 0 118 55
l102 -125q-99 -99 -232 -99z" />
    <glyph glyph-name="cdotaccent" unicode="&#x10b;" horiz-adv-x="477" 
d="M244 -12q-101 0 -162.5 61.5t-61.5 166.5q0 71 25.5 139t74.5 117q81 81 194 81q136 0 194 -114l-128 -92q-30 54 -69 54q-35 0 -61 -28q-25 -24 -39.5 -65t-14.5 -81q0 -42 18 -64.5t47 -22.5q35 0 79 39l93 -107q-77 -84 -189 -84zM255 588l35 135h156l-34 -135h-157z
" />
    <glyph glyph-name="Ccaron" unicode="&#x10c;" horiz-adv-x="608" 
d="M329 -12q-131 0 -210 79t-79 213q0 91 32.5 179t94.5 150q105 103 251 103q79 0 142 -36t100 -99l-142 -109q-25 38 -50.5 56.5t-61.5 18.5q-56 0 -100 -46q-35 -34 -55.5 -91t-20.5 -113q0 -63 30.5 -99.5t80.5 -36.5q57 0 118 55l102 -125q-99 -99 -232 -99zM678 889
l-146 -140h-157l-76 140h112l58 -50l81 50h128z" />
    <glyph glyph-name="ccaron" unicode="&#x10d;" horiz-adv-x="477" 
d="M246 587l-75 155h107l58 -59l87 59h120l-152 -155h-145zM244 -12q-101 0 -162.5 61.5t-61.5 166.5q0 71 25.5 139t74.5 117q81 81 194 81q136 0 194 -114l-128 -92q-30 54 -69 54q-35 0 -61 -28q-25 -24 -39.5 -65t-14.5 -81q0 -42 18 -64.5t47 -22.5q35 0 79 39l93 -107
q-77 -84 -189 -84z" />
    <glyph glyph-name="Dcaron" unicode="&#x10e;" horiz-adv-x="660" 
d="M-16 0l171 700h189q161 0 242 -79q72 -71 72 -202q0 -80 -31 -164.5t-90 -142.5q-112 -112 -319 -112h-234zM437 503q-33 33 -104 33h-36l-89 -372h36q99 0 157 56q32 33 50.5 85.5t18.5 100.5q0 64 -33 97zM639 881l-146 -140h-157l-76 140h112l58 -50l81 50h128z" />
    <glyph glyph-name="dcaron" unicode="&#x10f;" horiz-adv-x="588" 
d="M656 579l50 203h126v-3l-107 -200h-69zM300 0l13 56q-65 -67 -135 -67q-68 0 -113 54.5t-45 150.5q0 80 28.5 162t77.5 131q68 68 153 68q91 0 138 -80l59 249h180l-177 -724h-179zM269 140q34 0 60 26q25 25 39.5 68t14.5 84q0 40 -18 63t-49 23q-34 0 -60 -26
q-24 -24 -39 -66.5t-15 -84.5q0 -41 17 -64t50 -23z" />
    <glyph glyph-name="Dcroat" unicode="&#x110;" horiz-adv-x="689" 
d="M12 278l37 148h72l67 274h186q162 0 243 -79q71 -71 71 -202q0 -80 -31 -164.5t-89 -142.5q-112 -112 -319 -112h-232l68 278h-73zM471 505q-33 35 -107 35h-37l-27 -115h86l-37 -146h-84l-28 -119h36q103 0 160 58q34 33 53 86.5t19 102.5q0 66 -34 98z" />
    <glyph glyph-name="dcroat" unicode="&#x111;" horiz-adv-x="588" 
d="M318 587l23 91h124l11 46h180l-11 -46h52l-22 -92h-53l-143 -586h-179l13 56q-65 -67 -135 -67q-68 0 -113 54.5t-45 150.5q0 80 28.5 162t77.5 131q68 68 153 68q91 0 138 -80l26 112h-125zM269 140q34 0 60 26q25 25 39.5 68t14.5 84q0 40 -18 63t-49 23q-34 0 -60 -26
q-24 -24 -39 -66.5t-15 -84.5q0 -41 17 -64t50 -23z" />
    <glyph glyph-name="Emacron" unicode="&#x112;" horiz-adv-x="571" 
d="M226 744l29 112h356l-28 -112h-357zM-16 0l171 700h479l-40 -159h-297l-26 -114h267l-38 -150h-267l-28 -118h303l-41 -159h-483z" />
    <glyph glyph-name="emacron" unicode="&#x113;" horiz-adv-x="532" 
d="M496 215h-309q2 -42 23 -65t60 -23q49 0 106 39l70 -113q-82 -65 -192 -65q-109 0 -171 63t-62 172q0 69 26.5 136.5t74.5 115.5q79 79 193 79q98 0 150.5 -58.5t52.5 -151.5q0 -63 -22 -129zM179 588l28 110h333l-28 -110h-333zM242 391q-28 -28 -42 -78h152q6 22 6 42
q0 28 -15 45.5t-41 17.5q-33 0 -60 -27z" />
    <glyph glyph-name="Ebreve" unicode="&#x114;" horiz-adv-x="571" 
d="M403 739q-76 0 -115.5 36t-30.5 104h102q8 -41 64 -41q51 0 78 41h112q-25 -69 -79.5 -104.5t-130.5 -35.5zM-16 0l171 700h479l-40 -159h-297l-26 -114h267l-38 -150h-267l-28 -118h303l-41 -159h-483z" />
    <glyph glyph-name="ebreve" unicode="&#x115;" horiz-adv-x="532" 
d="M496 215h-309q2 -42 23 -65t60 -23q49 0 106 39l70 -113q-82 -65 -192 -65q-109 0 -171 63t-62 172q0 69 26.5 136.5t74.5 115.5q79 79 193 79q98 0 150.5 -58.5t52.5 -151.5q0 -63 -22 -129zM358 585q-78 0 -119.5 41t-40.5 113h107q2 -23 17 -38t42 -15q55 0 85 53h107
q-21 -71 -73 -112.5t-125 -41.5zM242 391q-28 -28 -42 -78h152q6 22 6 42q0 28 -15 45.5t-41 17.5q-33 0 -60 -27z" />
    <glyph glyph-name="Edotaccent" unicode="&#x116;" horiz-adv-x="571" 
d="M325 742l33 130h157l-33 -130h-157zM-16 0l171 700h479l-40 -159h-297l-26 -114h267l-38 -150h-267l-28 -118h303l-41 -159h-483z" />
    <glyph glyph-name="edotaccent" unicode="&#x117;" horiz-adv-x="532" 
d="M496 215h-309q2 -42 23 -65t60 -23q49 0 106 39l70 -113q-82 -65 -192 -65q-109 0 -171 63t-62 172q0 69 26.5 136.5t74.5 115.5q79 79 193 79q98 0 150.5 -58.5t52.5 -151.5q0 -63 -22 -129zM267 588l35 135h156l-34 -135h-157zM242 391q-28 -28 -42 -78h152q6 22 6 42
q0 28 -15 45.5t-41 17.5q-33 0 -60 -27z" />
    <glyph glyph-name="Eogonek" unicode="&#x118;" horiz-adv-x="571" 
d="M-16 0l171 700h479l-40 -159h-297l-26 -114h267l-38 -150h-267l-28 -118h303l-41 -159h-37q-30 -34 -30 -50q0 -23 55 -23l-19 -79q-29 -4 -63 -4q-55 -1 -85 15.5t-30 47.5q0 43 61 93h-335z" />
    <glyph glyph-name="eogonek" unicode="&#x119;" horiz-adv-x="532" 
d="M376 166l70 -113q-43 -29 -69 -53q-30 -30 -30 -50q0 -23 55 -23l-20 -79q-29 -4 -64 -4q-55 -1 -84.5 15.5t-29.5 47.5q0 38 46 81q-108 1 -168.5 64t-60.5 171q0 69 26.5 136.5t74.5 115.5q79 79 193 79q98 0 150.5 -58.5t52.5 -151.5q0 -63 -22 -129h-309
q2 -42 23 -65t60 -23q49 0 106 39zM242 391q-28 -28 -42 -78h152q6 22 6 42q0 28 -15 45.5t-41 17.5q-33 0 -60 -27z" />
    <glyph glyph-name="Ecaron" unicode="&#x11a;" horiz-adv-x="571" 
d="M631 881l-146 -140h-157l-76 140h112l58 -50l81 50h128zM-16 0l171 700h479l-40 -159h-297l-26 -114h267l-38 -150h-267l-28 -118h303l-41 -159h-483z" />
    <glyph glyph-name="ecaron" unicode="&#x11b;" horiz-adv-x="532" 
d="M496 215h-309q2 -42 23 -65t60 -23q49 0 106 39l70 -113q-82 -65 -192 -65q-109 0 -171 63t-62 172q0 69 26.5 136.5t74.5 115.5q79 79 193 79q98 0 150.5 -58.5t52.5 -151.5q0 -63 -22 -129zM258 587l-75 155h107l58 -59l87 59h120l-152 -155h-145zM242 391
q-28 -28 -42 -78h152q6 22 6 42q0 28 -15 45.5t-41 17.5q-33 0 -60 -27z" />
    <glyph glyph-name="Gbreve" unicode="&#x11e;" horiz-adv-x="655" 
d="M461 747q-76 0 -115.5 36t-30.5 104h102q8 -41 64 -41q51 0 78 41h112q-25 -69 -79.5 -104.5t-130.5 -35.5zM334 -12q-123 0 -209.5 74.5t-86.5 213.5q0 89 33 177t94 148q111 111 274 111q153 0 245 -97l-120 -128q-63 59 -136 59q-75 0 -126 -53q-36 -36 -56.5 -95
t-20.5 -114q0 -65 35 -100.5t89 -35.5q33 0 62 11l26 109h-105l36 142h277l-92 -366q-102 -56 -219 -56z" />
    <glyph glyph-name="gbreve" unicode="&#x11f;" horiz-adv-x="584" 
d="M205 -152q-141 0 -245 63l70 122q83 -52 165 -52q54 0 87 31q26 26 39 78l6 23q-65 -68 -143 -68q-69 0 -114 46.5t-45 129.5q0 72 27.5 146.5t74.5 121.5q65 65 148 65q94 0 138 -83l17 72h180l-108 -445q-30 -126 -87 -181q-69 -69 -210 -69zM267 179q35 0 62 27
q45 49 45 124q0 38 -17.5 58.5t-46.5 20.5q-34 0 -58 -26q-22 -22 -34.5 -58.5t-12.5 -69.5q0 -76 62 -76zM386 585q-78 0 -119.5 41t-40.5 113h107q2 -23 17 -38t42 -15q55 0 85 53h107q-21 -71 -73 -112.5t-125 -41.5z" />
    <glyph glyph-name="Gdotaccent" unicode="&#x120;" horiz-adv-x="655" 
d="M384 750l33 130h157l-33 -130h-157zM334 -12q-123 0 -209.5 74.5t-86.5 213.5q0 89 33 177t94 148q111 111 274 111q153 0 245 -97l-120 -128q-63 59 -136 59q-75 0 -126 -53q-36 -36 -56.5 -95t-20.5 -114q0 -65 35 -100.5t89 -35.5q33 0 62 11l26 109h-105l36 142h277
l-92 -366q-102 -56 -219 -56z" />
    <glyph glyph-name="gdotaccent" unicode="&#x121;" horiz-adv-x="584" 
d="M205 -152q-141 0 -245 63l70 122q83 -52 165 -52q54 0 87 31q26 26 39 78l6 23q-65 -68 -143 -68q-69 0 -114 46.5t-45 129.5q0 72 27.5 146.5t74.5 121.5q65 65 148 65q94 0 138 -83l17 72h180l-108 -445q-30 -126 -87 -181q-69 -69 -210 -69zM267 179q35 0 62 27
q45 49 45 124q0 38 -17.5 58.5t-46.5 20.5q-34 0 -58 -26q-22 -22 -34.5 -58.5t-12.5 -69.5q0 -76 62 -76zM296 588l35 135h156l-34 -135h-157z" />
    <glyph glyph-name="Gcommaaccent" unicode="&#x122;" horiz-adv-x="655" 
d="M161 -289l4 53q77 9 86 62h-65l32 124h148l-27 -107q-17 -67 -61.5 -97.5t-116.5 -34.5zM334 -12q-123 0 -209.5 74.5t-86.5 213.5q0 89 33 177t94 148q111 111 274 111q153 0 245 -97l-120 -128q-63 59 -136 59q-75 0 -126 -53q-36 -36 -56.5 -95t-20.5 -114
q0 -65 35 -100.5t89 -35.5q33 0 62 11l26 109h-105l36 142h277l-92 -366q-102 -56 -219 -56z" />
    <glyph glyph-name="gcommaaccent" unicode="&#x123;" horiz-adv-x="584" 
d="M502 827l-4 -53q-77 -9 -86 -62h65l-32 -124h-148l27 107q17 67 61.5 97.5t116.5 34.5zM205 -152q-141 0 -245 63l70 122q83 -52 165 -52q54 0 87 31q26 26 39 78l6 23q-65 -68 -143 -68q-69 0 -114 46.5t-45 129.5q0 72 27.5 146.5t74.5 121.5q65 65 148 65
q94 0 138 -83l17 72h180l-108 -445q-30 -126 -87 -181q-69 -69 -210 -69zM267 179q35 0 62 27q45 49 45 124q0 38 -17.5 58.5t-46.5 20.5q-34 0 -58 -26q-22 -22 -34.5 -58.5t-12.5 -69.5q0 -76 62 -76z" />
    <glyph glyph-name="Hbar" unicode="&#x126;" horiz-adv-x="667" 
d="M62 521l27 109h54l17 70h183l-17 -71h189l18 71h183l-17 -70h55l-28 -109h-54l-127 -521h-184l66 270h-190l-65 -270h-183l127 521h-54zM279 434h189l22 90h-190z" />
    <glyph glyph-name="hbar" unicode="&#x127;" horiz-adv-x="556" 
d="M66 586l22 92h53l11 45h180l-11 -45h124l-22 -91h-125l-24 -101q62 68 137 68q62 0 97.5 -37.5t35.5 -102.5q0 -32 -14 -95l-77 -319h-180l73 301q7 28 7 48q0 45 -45 45q-58 0 -76 -80l-76 -314h-180l142 586h-52z" />
    <glyph glyph-name="Imacron" unicode="&#x12a;" horiz-adv-x="293" 
d="M-12 0l172 700h183l-171 -700h-184zM85 744l29 112h356l-28 -112h-357z" />
    <glyph glyph-name="imacron" unicode="&#x12b;" horiz-adv-x="272" 
d="M-20 0l132 543h180l-132 -543h-180zM47 584l28 110h333l-28 -110h-333z" />
    <glyph glyph-name="Ibreve" unicode="&#x12c;" horiz-adv-x="293" 
d="M-12 0l172 700h183l-171 -700h-184zM262 739q-76 0 -115.5 36t-30.5 104h102q8 -41 64 -41q51 0 78 41h112q-25 -69 -79.5 -104.5t-130.5 -35.5z" />
    <glyph glyph-name="ibreve" unicode="&#x12d;" horiz-adv-x="272" 
d="M-20 0l132 543h180l-132 -543h-180zM225 581q-78 0 -119.5 41t-40.5 113h107q2 -23 17 -38t42 -15q55 0 85 53h107q-21 -71 -73 -112.5t-125 -41.5z" />
    <glyph glyph-name="Iogonek" unicode="&#x12e;" horiz-adv-x="293" 
d="M-12 0l172 700h183l-171 -700h-30q-30 -34 -30 -50q0 -23 55 -23l-19 -79q-29 -4 -63 -4q-55 -1 -85 15.5t-30 47.5q0 41 61 93h-43z" />
    <glyph glyph-name="iogonek" unicode="&#x12f;" horiz-adv-x="272" 
d="M-20 0l133 543h179l-132 -543h-29q-30 -34 -30 -50q0 -23 55 -23l-19 -79q-29 -4 -63 -4q-55 -1 -85 15.5t-30 47.5q0 41 61 93h-40zM120 587l36 140h185l-36 -140h-185z" />
    <glyph glyph-name="Idotaccent" unicode="&#x130;" horiz-adv-x="293" 
d="M-12 0l172 700h183l-171 -700h-184zM185 742l33 130h157l-33 -130h-157z" />
    <glyph glyph-name="dotlessi" unicode="&#x131;" horiz-adv-x="272" 
d="M-20 0l132 543h180l-132 -543h-180z" />
    <glyph glyph-name="Kcommaaccent" unicode="&#x136;" horiz-adv-x="626" 
d="M128 -282l4 53q77 9 86 62h-65l32 124h148l-27 -107q-17 -67 -61.5 -97.5t-116.5 -34.5zM-16 0l171 700h184l-66 -270l229 270h224l-280 -307l121 -393h-197l-71 260l-92 -97l-39 -163h-184z" />
    <glyph glyph-name="kcommaaccent" unicode="&#x137;" horiz-adv-x="528" 
d="M62 -283l4 53q77 9 86 62h-65l32 124h148l-27 -107q-17 -67 -61.5 -97.5t-116.5 -34.5zM-24 0l177 723h180l-83 -343l139 163h211l-210 -219l81 -324h-191l-39 200l-50 -55l-35 -145h-180z" />
    <glyph glyph-name="Lacute" unicode="&#x139;" horiz-adv-x="526" 
d="M198 740l136 151l166 -50l-161 -101h-141zM-16 0l171 700h184l-130 -536h269l-42 -164h-452z" />
    <glyph glyph-name="lacute" unicode="&#x13a;" horiz-adv-x="272" 
d="M184 753l136 151l166 -50l-161 -101h-141zM-20 0l177 723h179l-176 -723h-180z" />
    <glyph glyph-name="Lcommaaccent" unicode="&#x13b;" horiz-adv-x="526" 
d="M67 -283l4 53q77 9 86 62h-65l32 124h148l-27 -107q-17 -67 -61.5 -97.5t-116.5 -34.5zM-16 0l171 700h184l-130 -536h269l-42 -164h-452z" />
    <glyph glyph-name="lcommaaccent" unicode="&#x13c;" horiz-adv-x="272" 
d="M-68 -283l4 53q77 9 86 62h-65l32 124h148l-27 -107q-17 -67 -61.5 -97.5t-116.5 -34.5zM-20 0l177 723h179l-176 -723h-180z" />
    <glyph glyph-name="Lcaron" unicode="&#x13d;" horiz-adv-x="526" 
d="M336 532l50 203h126v-3l-107 -200h-69zM-16 0l171 700h184l-130 -536h269l-42 -164h-452z" />
    <glyph glyph-name="lcaron" unicode="&#x13e;" horiz-adv-x="272" 
d="M338 579l50 203h126v-3l-107 -200h-69zM-20 0l177 723h179l-176 -723h-180z" />
    <glyph glyph-name="Ldot" unicode="&#x13f;" horiz-adv-x="523" 
d="M345 321l39 152h147l-39 -152h-147zM-16 0l171 700h184l-130 -536h269l-42 -164h-452z" />
    <glyph glyph-name="ldot" unicode="&#x140;" horiz-adv-x="385" 
d="M272 298l38 149h126l-38 -149h-126zM-20 0l177 723h179l-176 -723h-180z" />
    <glyph glyph-name="Lslash" unicode="&#x141;" horiz-adv-x="559" 
d="M3 213l43 169l68 22l73 296h184l-56 -232l154 50l-42 -170l-153 -49l-33 -135h269l-42 -164h-452l57 235z" />
    <glyph glyph-name="lslash" unicode="&#x142;" horiz-adv-x="345" 
d="M4 232l41 165l75 24l74 302h179l-59 -239l78 25l-42 -166l-76 -24l-77 -319h-180l62 256z" />
    <glyph glyph-name="Nacute" unicode="&#x143;" horiz-adv-x="676" 
d="M378 740l136 151l166 -50l-161 -101h-141zM-16 0l171 700h173l131 -377l91 377h181l-171 -700h-163l-138 392l-94 -392h-181z" />
    <glyph glyph-name="nacute" unicode="&#x144;" horiz-adv-x="554" 
d="M283 586l139 173l158 -53l-166 -120h-131zM-24 0l133 543h179l-14 -57q62 68 137 68q62 0 97.5 -37.5t35.5 -102.5q0 -32 -14 -95l-77 -319h-180l73 301q7 28 7 48q0 45 -45 45q-58 0 -76 -80l-76 -314h-180z" />
    <glyph glyph-name="Ncommaaccent" unicode="&#x145;" horiz-adv-x="676" 
d="M132 -282l4 53q77 9 86 62h-65l32 124h148l-27 -107q-17 -67 -61.5 -97.5t-116.5 -34.5zM-16 0l171 700h173l131 -377l91 377h181l-171 -700h-163l-138 392l-94 -392h-181z" />
    <glyph glyph-name="ncommaaccent" unicode="&#x146;" horiz-adv-x="554" 
d="M69 -283l4 53q77 9 86 62h-65l32 124h148l-27 -107q-17 -67 -61.5 -97.5t-116.5 -34.5zM-24 0l133 543h179l-14 -57q62 68 137 68q62 0 97.5 -37.5t35.5 -102.5q0 -32 -14 -95l-77 -319h-180l73 301q7 28 7 48q0 45 -45 45q-58 0 -76 -80l-76 -314h-180z" />
    <glyph glyph-name="Ncaron" unicode="&#x147;" horiz-adv-x="676" 
d="M679 881l-146 -140h-157l-76 140h112l58 -50l81 50h128zM-16 0l171 700h173l131 -377l91 377h181l-171 -700h-163l-138 392l-94 -392h-181z" />
    <glyph glyph-name="ncaron" unicode="&#x148;" horiz-adv-x="554" 
d="M264 587l-75 155h107l58 -59l87 59h120l-152 -155h-145zM-24 0l133 543h179l-14 -57q62 68 137 68q62 0 97.5 -37.5t35.5 -102.5q0 -32 -14 -95l-77 -319h-180l73 301q7 28 7 48q0 45 -45 45q-58 0 -76 -80l-76 -314h-180z" />
    <glyph glyph-name="Omacron" unicode="&#x14c;" horiz-adv-x="694" 
d="M280 752l29 112h356l-28 -112h-357zM412 713q126 0 203 -79t77 -210q0 -90 -34 -182.5t-96 -153.5q-101 -101 -242 -101q-126 0 -203 79t-77 210q0 90 34 182.5t96 154.5q100 100 242 100zM336 153q51 0 92 41q35 35 56.5 98.5t21.5 118.5q0 65 -28.5 100.5t-81.5 35.5
t-92 -41q-35 -35 -56.5 -99t-21.5 -118q0 -65 28.5 -100.5t81.5 -35.5z" />
    <glyph glyph-name="omacron" unicode="&#x14d;" horiz-adv-x="564" 
d="M191 588l28 110h333l-28 -110h-333zM312 554q107 0 168.5 -64.5t61.5 -169.5q0 -70 -26 -138t-72 -114q-78 -80 -191 -80q-107 0 -168.5 64.5t-61.5 169.5q0 71 25.5 138.5t72.5 114.5q79 79 191 79zM262 138q32 0 55 25q24 23 38.5 66t14.5 84q0 44 -18 67.5t-50 23.5
q-31 0 -55 -24q-23 -23 -38 -67t-15 -84q0 -44 18.5 -67.5t49.5 -23.5z" />
    <glyph glyph-name="Obreve" unicode="&#x14e;" horiz-adv-x="694" 
d="M456 747q-76 0 -115.5 36t-30.5 104h102q8 -41 64 -41q51 0 78 41h112q-25 -69 -79.5 -104.5t-130.5 -35.5zM412 713q126 0 203 -79t77 -210q0 -90 -34 -182.5t-96 -153.5q-101 -101 -242 -101q-126 0 -203 79t-77 210q0 90 34 182.5t96 154.5q100 100 242 100zM336 153
q51 0 92 41q35 35 56.5 98.5t21.5 118.5q0 65 -28.5 100.5t-81.5 35.5t-92 -41q-35 -35 -56.5 -99t-21.5 -118q0 -65 28.5 -100.5t81.5 -35.5z" />
    <glyph glyph-name="obreve" unicode="&#x14f;" horiz-adv-x="564" 
d="M312 554q107 0 168.5 -64.5t61.5 -169.5q0 -70 -26 -138t-72 -114q-78 -80 -191 -80q-107 0 -168.5 64.5t-61.5 169.5q0 71 25.5 138.5t72.5 114.5q79 79 191 79zM262 138q32 0 55 25q24 23 38.5 66t14.5 84q0 44 -18 67.5t-50 23.5q-31 0 -55 -24q-23 -23 -38 -67
t-15 -84q0 -44 18.5 -67.5t49.5 -23.5zM369 585q-78 0 -119.5 41t-40.5 113h107q2 -23 17 -38t42 -15q55 0 85 53h107q-21 -71 -73 -112.5t-125 -41.5z" />
    <glyph glyph-name="Ohungarumlaut" unicode="&#x150;" horiz-adv-x="694" 
d="M412 713q126 0 203 -79t77 -210q0 -90 -34 -182.5t-96 -153.5q-101 -101 -242 -101q-126 0 -203 79t-77 210q0 90 34 182.5t96 154.5q100 100 242 100zM336 153q51 0 92 41q35 35 56.5 98.5t21.5 118.5q0 65 -28.5 100.5t-81.5 35.5t-92 -41q-35 -35 -56.5 -99
t-21.5 -118q0 -65 28.5 -100.5t81.5 -35.5zM462 748l78 89l-134 -89h-126l131 151l142 -47l42 47l150 -50l-155 -101h-128z" />
    <glyph glyph-name="ohungarumlaut" unicode="&#x151;" horiz-adv-x="564" 
d="M312 554q107 0 168.5 -64.5t61.5 -169.5q0 -70 -26 -138t-72 -114q-78 -80 -191 -80q-107 0 -168.5 64.5t-61.5 169.5q0 71 25.5 138.5t72.5 114.5q79 79 191 79zM338 586l90 117l-154 -117h-117l136 173l138 -52l40 52l142 -52l-157 -121h-118zM262 138q32 0 55 25
q24 23 38.5 66t14.5 84q0 44 -18 67.5t-50 23.5q-31 0 -55 -24q-23 -23 -38 -67t-15 -84q0 -44 18.5 -67.5t49.5 -23.5z" />
    <glyph glyph-name="OE" unicode="&#x152;" horiz-adv-x="914" 
d="M354 0q-161 0 -245 82q-69 69 -69 199q0 80 31 164t90 143q112 112 319 112h500l-40 -159h-283l-25 -114h252l-38 -150h-252l-28 -118h288l-41 -159h-459zM261 197q33 -33 104 -33h20l89 372h-20q-100 0 -156 -56q-33 -33 -51 -85.5t-18 -100.5q0 -65 32 -97z" />
    <glyph glyph-name="oe" unicode="&#x153;" horiz-adv-x="872" 
d="M836 215h-309q2 -42 23.5 -65t59.5 -23q50 0 106 39l70 -113q-82 -65 -191 -65q-114 0 -171 78q-75 -78 -172 -78q-107 0 -168 64.5t-61 169.5q0 71 25.5 138.5t72.5 114.5q79 79 190 79q112 0 168 -81q74 81 182 81q94 0 146 -59t52 -151q0 -60 -23 -129zM262 138
q32 0 55 25q24 23 38.5 66t14.5 84q0 44 -18 67.5t-50 23.5q-31 0 -55 -24q-23 -23 -38 -67t-15 -84q0 -44 18.5 -67.5t49.5 -23.5zM582 391q-26 -26 -42 -78h153q5 21 5 42q0 28 -14.5 45.5t-41.5 17.5q-31 0 -60 -27z" />
    <glyph glyph-name="Racute" unicode="&#x154;" horiz-adv-x="626" 
d="M348 0l-73 213h-11h-46l-50 -213h-184l171 700h213q155 0 222 -67q54 -54 54 -143q0 -110 -67 -179q-45 -45 -117 -69l88 -242h-200zM256 359h68q68 0 102 33q29 31 29 77q0 32 -20 50q-21 22 -72 22h-64zM331 740l136 151l166 -50l-161 -101h-141z" />
    <glyph glyph-name="racute" unicode="&#x155;" horiz-adv-x="377" 
d="M202 582l139 173l158 -53l-166 -120h-131zM-24 0l133 543h179l-23 -93q68 109 167 102l-50 -193h-12q-67 0 -106.5 -36.5t-59.5 -118.5l-48 -204h-180z" />
    <glyph glyph-name="Rcommaaccent" unicode="&#x156;" horiz-adv-x="626" 
d="M348 0l-73 213h-11h-46l-50 -213h-184l171 700h213q155 0 222 -67q54 -54 54 -143q0 -110 -67 -179q-45 -45 -117 -69l88 -242h-200zM105 -282l4 53q77 9 86 62h-65l32 124h148l-27 -107q-17 -67 -61.5 -97.5t-116.5 -34.5zM256 359h68q68 0 102 33q29 31 29 77
q0 32 -20 50q-21 22 -72 22h-64z" />
    <glyph glyph-name="rcommaaccent" unicode="&#x157;" horiz-adv-x="377" 
d="M-66 -283l4 53q77 9 86 62h-65l32 124h148l-27 -107q-17 -67 -61.5 -97.5t-116.5 -34.5zM-24 0l133 543h179l-23 -93q68 109 167 102l-50 -193h-12q-67 0 -106.5 -36.5t-59.5 -118.5l-48 -204h-180z" />
    <glyph glyph-name="Rcaron" unicode="&#x158;" horiz-adv-x="626" 
d="M348 0l-73 213h-11h-46l-50 -213h-184l171 700h213q155 0 222 -67q54 -54 54 -143q0 -110 -67 -179q-45 -45 -117 -69l88 -242h-200zM634 881l-146 -140h-157l-76 140h112l58 -50l81 50h128zM256 359h68q68 0 102 33q29 31 29 77q0 32 -20 50q-21 22 -72 22h-64z" />
    <glyph glyph-name="rcaron" unicode="&#x159;" horiz-adv-x="377" 
d="M181 583l-75 155h107l58 -59l87 59h120l-152 -155h-145zM-24 0l133 543h179l-23 -93q68 109 167 102l-50 -193h-12q-67 0 -106.5 -36.5t-59.5 -118.5l-48 -204h-180z" />
    <glyph glyph-name="Sacute" unicode="&#x15a;" horiz-adv-x="554" 
d="M250 -11q-166 0 -276 118l112 129q92 -90 175 -90q28 0 44.5 13.5t16.5 36.5q0 19 -17.5 36.5t-72.5 49.5q-76 45 -111.5 90t-35.5 107q0 94 63 157q75 75 198 75q145 0 248 -98l-110 -130q-76 71 -148 71q-28 0 -44.5 -13.5t-16.5 -33.5q0 -19 17.5 -35.5t74.5 -51.5
q74 -43 110.5 -88t36.5 -110q0 -95 -66 -161q-72 -72 -198 -72zM306 748l136 151l166 -50l-161 -101h-141z" />
    <glyph glyph-name="sacute" unicode="&#x15b;" horiz-adv-x="443" 
d="M223 586l139 173l158 -53l-166 -120h-131zM194 -12q-135 0 -233 93l88 112q76 -74 146 -74q19 0 29.5 9t10.5 23q0 15 -13.5 26.5t-58.5 38.5q-59 35 -87.5 70t-28.5 85q0 78 57 130.5t154 52.5q119 0 208 -77l-85 -115q-69 61 -128 61q-16 0 -26.5 -8t-10.5 -21
q0 -14 12.5 -25t57.5 -37q61 -36 90 -72t29 -88q0 -76 -56 -130t-155 -54z" />
    <glyph glyph-name="Scedilla" unicode="&#x15e;" horiz-adv-x="554" 
d="M172 -160l-137 57l105 107q-98 29 -166 103l112 129q92 -90 175 -90q28 0 44.5 13.5t16.5 36.5q0 19 -17.5 36.5t-72.5 49.5q-76 45 -111.5 90t-35.5 107q0 94 63 157q75 75 198 75q145 0 248 -98l-110 -130q-76 71 -148 71q-28 0 -44.5 -13.5t-16.5 -33.5
q0 -19 17.5 -35.5t74.5 -51.5q74 -43 110.5 -88t36.5 -110q0 -95 -66 -161q-69 -69 -191 -72z" />
    <glyph glyph-name="scedilla" unicode="&#x15f;" horiz-adv-x="443" 
d="M124 -160l-137 57l104 106q-73 24 -130 78l88 112q76 -74 146 -74q19 0 29.5 9t10.5 23q0 15 -13.5 26.5t-58.5 38.5q-59 35 -87.5 70t-28.5 85q0 78 57 130.5t154 52.5q119 0 208 -77l-85 -115q-69 61 -128 61q-16 0 -26.5 -8t-10.5 -21q0 -14 12.5 -25t57.5 -37
q61 -36 90 -72t29 -88q0 -73 -52.5 -126.5t-144.5 -57.5z" />
    <glyph glyph-name="Scaron" unicode="&#x160;" horiz-adv-x="554" 
d="M250 -11q-166 0 -276 118l112 129q92 -90 175 -90q28 0 44.5 13.5t16.5 36.5q0 19 -17.5 36.5t-72.5 49.5q-76 45 -111.5 90t-35.5 107q0 94 63 157q75 75 198 75q145 0 248 -98l-110 -130q-76 71 -148 71q-28 0 -44.5 -13.5t-16.5 -33.5q0 -19 17.5 -35.5t74.5 -51.5
q74 -43 110.5 -88t36.5 -110q0 -95 -66 -161q-72 -72 -198 -72zM608 889l-146 -140h-157l-76 140h112l58 -50l81 50h128z" />
    <glyph glyph-name="scaron" unicode="&#x161;" horiz-adv-x="443" 
d="M205 587l-75 155h107l58 -59l87 59h120l-152 -155h-145zM194 -12q-135 0 -233 93l88 112q76 -74 146 -74q19 0 29.5 9t10.5 23q0 15 -13.5 26.5t-58.5 38.5q-59 35 -87.5 70t-28.5 85q0 78 57 130.5t154 52.5q119 0 208 -77l-85 -115q-69 61 -128 61q-16 0 -26.5 -8
t-10.5 -21q0 -14 12.5 -25t57.5 -37q61 -36 90 -72t29 -88q0 -76 -56 -130t-155 -54z" />
    <glyph glyph-name="Tcommaaccent" unicode="&#x162;" horiz-adv-x="550" 
d="M69 -283l4 53q77 9 86 62h-65l32 124h148l-27 -107q-17 -67 -61.5 -97.5t-116.5 -34.5zM116 0l130 536h-172l42 164h527l-42 -164h-171l-130 -536h-184z" />
    <glyph glyph-name="tcommaaccent" unicode="&#x163;" horiz-adv-x="373" 
d="M6 -287l4 53q77 9 86 62h-65l32 124h148l-27 -107q-17 -67 -61.5 -97.5t-116.5 -34.5zM178 -10q-69 0 -106 30.5t-37 87.5q0 27 10 69l53 221h-54l36 145h54l32 133h180l-32 -133h100l-37 -145h-99l-48 -199q-4 -15 -4 -29q0 -26 34 -26q26 0 59 12l-37 -147
q-47 -19 -104 -19z" />
    <glyph glyph-name="Tcaron" unicode="&#x164;" horiz-adv-x="550" 
d="M617 881l-146 -140h-157l-76 140h112l58 -50l81 50h128zM116 0l130 536h-172l42 164h527l-42 -164h-171l-130 -536h-184z" />
    <glyph glyph-name="tcaron" unicode="&#x165;" horiz-adv-x="373" 
d="M356 580l50 203h126v-3l-107 -200h-69zM178 -10q-69 0 -106 30.5t-37 87.5q0 27 10 69l53 221h-54l36 145h54l32 133h180l-32 -133h100l-37 -145h-99l-48 -199q-4 -15 -4 -29q0 -26 34 -26q26 0 59 12l-37 -147q-47 -19 -104 -19z" />
    <glyph glyph-name="Umacron" unicode="&#x16a;" horiz-adv-x="658" 
d="M264 744l29 112h356l-28 -112h-357zM290 -12q-117 0 -182 57t-65 159q0 47 16 113l92 383h185l-96 -397q-10 -43 -10 -69q0 -38 21.5 -59t59.5 -21q45 0 72 27q30 30 47 97l102 422h184l-107 -444q-33 -127 -96 -190q-76 -78 -223 -78z" />
    <glyph glyph-name="umacron" unicode="&#x16b;" horiz-adv-x="556" 
d="M147 -11q-62 0 -97 37.5t-35 102.5q0 39 14 95l77 319h180l-73 -301q-7 -27 -7 -48q0 -45 45 -45q58 0 76 80l76 314h179l-132 -543h-179l14 58q-61 -69 -138 -69zM187 584l28 110h333l-28 -110h-333z" />
    <glyph glyph-name="Ubreve" unicode="&#x16c;" horiz-adv-x="658" 
d="M437 732q-76 0 -115.5 36t-30.5 104h102q8 -41 64 -41q51 0 78 41h112q-25 -69 -79.5 -104.5t-130.5 -35.5zM290 -12q-117 0 -182 57t-65 159q0 47 16 113l92 383h185l-96 -397q-10 -43 -10 -69q0 -38 21.5 -59t59.5 -21q45 0 72 27q30 30 47 97l102 422h184l-107 -444
q-33 -127 -96 -190q-76 -78 -223 -78z" />
    <glyph glyph-name="ubreve" unicode="&#x16d;" horiz-adv-x="556" 
d="M147 -11q-62 0 -97 37.5t-35 102.5q0 39 14 95l77 319h180l-73 -301q-7 -27 -7 -48q0 -45 45 -45q58 0 76 80l76 314h179l-132 -543h-179l14 58q-61 -69 -138 -69zM366 581q-78 0 -119.5 41t-40.5 113h107q2 -23 17 -38t42 -15q55 0 85 53h107q-21 -71 -73 -112.5
t-125 -41.5z" />
    <glyph glyph-name="Uring" unicode="&#x16e;" horiz-adv-x="658" 
d="M290 -12q-117 0 -182 57t-65 159q0 47 16 113l92 383h185l-96 -397q-10 -43 -10 -69q0 -38 21.5 -59t59.5 -21q45 0 72 27q30 30 47 97l102 422h184l-107 -444q-33 -127 -96 -190q-76 -78 -223 -78zM472 952q50 0 83.5 -29.5t33.5 -71.5q0 -54 -39 -92t-102 -38
q-50 0 -84 30t-34 72q0 53 39.5 91t102.5 38zM453 778q33 0 52.5 20.5t19.5 45.5q0 23 -16 37.5t-42 14.5q-33 0 -52.5 -20.5t-19.5 -45.5q0 -23 16 -37.5t42 -14.5z" />
    <glyph glyph-name="uring" unicode="&#x16f;" horiz-adv-x="556" 
d="M495 705q0 -53 -37 -92.5t-94 -39.5q-48 0 -78 28.5t-30 73.5q0 53 37.5 92.5t93.5 39.5q48 0 78 -29t30 -73zM319 679q0 -23 13.5 -37.5t35.5 -14.5q28 0 46.5 22t18.5 52q0 23 -13.5 37.5t-35.5 14.5q-28 0 -46.5 -22t-18.5 -52zM147 -11q-62 0 -97 37.5t-35 102.5
q0 39 14 95l77 319h180l-73 -301q-7 -27 -7 -48q0 -45 45 -45q58 0 76 80l76 314h179l-132 -543h-179l14 58q-61 -69 -138 -69z" />
    <glyph glyph-name="Uhungarumlaut" unicode="&#x170;" horiz-adv-x="658" 
d="M290 -12q-117 0 -182 57t-65 159q0 47 16 113l92 383h185l-96 -397q-10 -43 -10 -69q0 -38 21.5 -59t59.5 -21q45 0 72 27q30 30 47 97l102 422h184l-107 -444q-33 -127 -96 -190q-76 -78 -223 -78zM446 740l78 89l-134 -89h-126l131 151l142 -47l42 47l150 -50
l-155 -101h-128z" />
    <glyph glyph-name="uhungarumlaut" unicode="&#x171;" horiz-adv-x="556" 
d="M147 -11q-62 0 -97 37.5t-35 102.5q0 39 14 95l77 319h180l-73 -301q-7 -27 -7 -48q0 -45 45 -45q58 0 76 80l76 314h179l-132 -543h-179l14 58q-61 -69 -138 -69zM334 582l90 117l-154 -117h-117l136 173l138 -52l40 52l142 -52l-157 -121h-118z" />
    <glyph glyph-name="Uogonek" unicode="&#x172;" horiz-adv-x="658" 
d="M347 -73l-19 -79q-29 -4 -63 -4q-55 -1 -85 15.5t-30 47.5q0 41 57 90q-79 18 -121.5 71t-42.5 136q0 47 16 113l92 383h185l-96 -397q-10 -43 -10 -69q0 -38 21.5 -59t59.5 -21q45 0 72 27q30 30 47 97l102 422h184l-107 -444q-33 -127 -96 -190q-70 -71 -201 -77
q-20 -24 -20 -39q0 -23 55 -23z" />
    <glyph glyph-name="uogonek" unicode="&#x173;" horiz-adv-x="556" 
d="M147 -11q-62 0 -97 37.5t-35 102.5q0 39 14 95l77 319h180l-73 -301q-7 -27 -7 -48q0 -45 45 -45q58 0 76 80l76 314h179l-132 -543h-29q-30 -34 -30 -50q0 -23 55 -23l-19 -79q-29 -4 -63 -4q-55 -1 -85 15.5t-30 47.5q0 43 61 93h-39l14 58q-61 -69 -138 -69z" />
    <glyph glyph-name="Wcircumflex" unicode="&#x174;" horiz-adv-x="961" 
d="M130 -4l-23 704h189l-4 -409l207 411h157l14 -411l190 409h199l-367 -704h-170l-18 389l-205 -389h-169zM393 741l145 140h158l76 -140h-113l-57 50l-82 -50h-127z" />
    <glyph glyph-name="wcircumflex" unicode="&#x175;" horiz-adv-x="759" 
d="M262 583l152 155h146l75 -155h-108l-58 60l-86 -60h-121zM84 -4l-8 547h174l-12 -280l133 282h148v-283l123 281h175l-277 -547h-155l-5 280l-139 -280h-157z" />
    <glyph glyph-name="Ycircumflex" unicode="&#x176;" horiz-adv-x="585" 
d="M128 0l65 271l-109 429h195l45 -257l169 257h213l-332 -444l-63 -256h-183zM200 741l145 140h158l76 -140h-113l-57 50l-82 -50h-127z" />
    <glyph glyph-name="ycircumflex" unicode="&#x177;" horiz-adv-x="544" 
d="M127 6l-48 537h181l5 -324l150 324h188l-293 -538q-47 -86 -95 -122t-118 -36q-77 0 -132 42l70 126q32 -25 61 -25q18 0 31 16zM154 583l152 155h146l75 -155h-108l-58 60l-86 -60h-121z" />
    <glyph glyph-name="Ydieresis" unicode="&#x178;" horiz-adv-x="585" 
d="M128 0l65 271l-109 429h195l45 -257l169 257h213l-332 -444l-63 -256h-183zM222 742l32 130h152l-33 -130h-151zM419 742l33 130h152l-33 -130h-152z" />
    <glyph glyph-name="Zacute" unicode="&#x179;" horiz-adv-x="581" 
d="M-34 0l35 138l372 404h-268l40 158h509l-34 -138l-373 -404h279l-40 -158h-520zM323 740l136 151l166 -50l-161 -101h-141z" />
    <glyph glyph-name="zacute" unicode="&#x17a;" horiz-adv-x="478" 
d="M239 582l139 173l158 -53l-166 -120h-131zM-39 0l31 122l267 278h-196l36 143h420l-30 -122l-269 -277h205l-36 -144h-428z" />
    <glyph glyph-name="Zdotaccent" unicode="&#x17b;" horiz-adv-x="581" 
d="M319 742l33 130h157l-33 -130h-157zM-34 0l35 138l372 404h-268l40 158h509l-34 -138l-373 -404h279l-40 -158h-520z" />
    <glyph glyph-name="zdotaccent" unicode="&#x17c;" horiz-adv-x="478" 
d="M-39 0l31 122l267 278h-196l36 143h420l-30 -122l-269 -277h205l-36 -144h-428zM231 584l35 135h156l-34 -135h-157z" />
    <glyph glyph-name="Zcaron" unicode="&#x17d;" horiz-adv-x="581" 
d="M624 881l-146 -140h-157l-76 140h112l58 -50l81 50h128zM-34 0l35 138l372 404h-268l40 158h509l-34 -138l-373 -404h279l-40 -158h-520z" />
    <glyph glyph-name="zcaron" unicode="&#x17e;" horiz-adv-x="478" 
d="M221 583l-75 155h107l58 -59l87 59h120l-152 -155h-145zM-39 0l31 122l267 278h-196l36 143h420l-30 -122l-269 -277h205l-36 -144h-428z" />
    <glyph glyph-name="Aringacute" unicode="&#x1fa;" horiz-adv-x="669" 
d="M-67 0l400 677q-13 22 -13 49q0 52 40 90t103 38q50 0 83.5 -29.5t33.5 -71.5q0 -53 -39 -90l68 -663h-190l-9 128h-211l-70 -128h-196zM409 876l138 136l162 -51l-164 -85h-136zM443 680q33 0 52.5 20.5t19.5 45.5q0 23 -16 37.5t-42 14.5q-33 0 -52.5 -20.5
t-19.5 -45.5q0 -23 16 -37.5t42 -14.5zM284 275h115l-10 206z" />
    <glyph glyph-name="aringacute" unicode="&#x1fb;" horiz-adv-x="526" 
d="M333 853l140 145l157 -50l-165 -95h-132zM126 -10q-60 0 -95.5 38t-35.5 101q0 91 55 146q56 56 158 56q54 0 114 -21l2 8q5 20 5 38q0 52 -76 52q-61 0 -124 -26l-29 136q88 32 191 32q106 0 161.5 -41.5t55.5 -117.5q0 -39 -13 -89l-72 -302h-177l12 52
q-62 -62 -132 -62zM211 102q29 0 51.5 25t31.5 61l9 38q-28 11 -56 11q-35 0 -55 -21q-25 -23 -25 -65q0 -49 44 -49zM486 719q0 -53 -37 -92.5t-94 -39.5q-48 0 -78 28.5t-30 73.5q0 53 37.5 92.5t93.5 39.5q48 0 78 -29t30 -73zM310 693q0 -23 13.5 -37.5t35.5 -14.5
q28 0 46.5 22t18.5 52q0 23 -13.5 37.5t-35.5 14.5q-28 0 -46.5 -22t-18.5 -52z" />
    <glyph glyph-name="AEacute" unicode="&#x1fc;" horiz-adv-x="915" 
d="M540 740l136 151l166 -50l-161 -101h-141zM-74 0l466 700h589l-41 -159h-281l-26 -114h253l-38 -150h-253l-28 -118h288l-41 -159h-466l31 128h-178l-80 -128h-195zM301 275h115l65 273h-12z" />
    <glyph glyph-name="aeacute" unicode="&#x1fd;" horiz-adv-x="813" 
d="M533 -12q-129 0 -185 93q-85 -91 -199 -91q-75 0 -114.5 38t-39.5 104q0 88 55 143q56 56 158 56q54 0 114 -21l2 8q5 25 5 38q0 52 -76 52q-61 0 -124 -26l-29 136q88 32 191 32q110 0 155 -58q72 62 160 62q91 0 142 -59t51 -151q0 -60 -23 -129h-309q2 -42 23.5 -65
t59.5 -23q50 0 106 39l70 -113q-82 -65 -193 -65zM398 582l139 173l158 -53l-166 -120h-131zM219 103q23 0 49.5 15.5t47.5 39.5q-6 32 -5 65q-28 14 -62 14q-37 0 -57 -21q-24 -22 -24 -63q0 -50 51 -50zM522 391q-26 -26 -42 -78h153q5 22 5 42q0 28 -14.5 45.5
t-41.5 17.5q-31 0 -60 -27z" />
    <glyph glyph-name="Oslashacute" unicode="&#x1fe;" horiz-adv-x="694" 
d="M412 713q107 0 180 -59l49 51h131l-120 -122q40 -68 40 -159q0 -90 -34 -182.5t-96 -153.5q-101 -101 -242 -101q-109 0 -182 59l-47 -51h-131l118 122q-38 67 -38 159q0 90 34 182.5t96 154.5q100 100 242 100zM335 146q54 0 96 44q36 35 58.5 100t22.5 123q0 11 -2 31
l-249 -273q26 -25 74 -25zM220 287q0 -19 1 -27l247 271q-28 23 -71 23q-55 0 -96 -43q-36 -36 -58.5 -101.5t-22.5 -122.5zM376 748l136 151l166 -50l-161 -101h-141z" />
    <glyph glyph-name="oslashacute" unicode="&#x1ff;" horiz-adv-x="564" 
d="M312 555q88 0 147 -46l38 38h119l-103 -102q29 -53 29 -125q0 -70 -25.5 -137.5t-71.5 -114.5q-82 -80 -192 -80q-88 0 -147 46l-38 -39h-119l103 102q-29 55 -29 126q0 70 26 138t72 114q80 80 191 80zM281 586l139 173l158 -53l-166 -120h-131zM323 159q24 25 39 68.5
t15 85.5v6l-160 -173q19 -14 44 -14q35 0 62 27zM305 411q-35 0 -62 -27q-24 -24 -39.5 -68.5t-15.5 -85.5v-7l159 174q-17 14 -42 14z" />
    <glyph glyph-name="Scommaaccent" unicode="&#x218;" horiz-adv-x="554" 
d="M73 -289l4 53q77 9 86 62h-65l32 124h148l-27 -107q-17 -67 -61.5 -97.5t-116.5 -34.5zM250 -11q-166 0 -276 118l112 129q92 -90 175 -90q28 0 44.5 13.5t16.5 36.5q0 19 -17.5 36.5t-72.5 49.5q-76 45 -111.5 90t-35.5 107q0 94 63 157q75 75 198 75q145 0 248 -98
l-110 -130q-76 71 -148 71q-28 0 -44.5 -13.5t-16.5 -33.5q0 -19 17.5 -35.5t74.5 -51.5q74 -43 110.5 -88t36.5 -110q0 -95 -66 -161q-72 -72 -198 -72z" />
    <glyph glyph-name="scommaaccent" unicode="&#x219;" horiz-adv-x="443" 
d="M16 -285l4 53q77 9 86 62h-65l32 124h148l-27 -107q-17 -67 -61.5 -97.5t-116.5 -34.5zM194 -12q-135 0 -233 93l88 112q76 -74 146 -74q19 0 29.5 9t10.5 23q0 15 -13.5 26.5t-58.5 38.5q-59 35 -87.5 70t-28.5 85q0 78 57 130.5t154 52.5q119 0 208 -77l-85 -115
q-69 61 -128 61q-16 0 -26.5 -8t-10.5 -21q0 -14 12.5 -25t57.5 -37q61 -36 90 -72t29 -88q0 -76 -56 -130t-155 -54z" />
    <glyph glyph-name="schwa" unicode="&#x259;" horiz-adv-x="532" 
d="M14 199q0 63 22 129h309q-2 42 -23 65t-60 23q-49 0 -106 -39l-70 113q82 65 192 65q109 0 171 -63t62 -172q0 -69 -26.5 -136.5t-74.5 -115.5q-79 -79 -193 -79q-98 0 -150.5 58.5t-52.5 151.5zM290 152q26 26 42 78h-152q-6 -22 -6 -42q0 -28 15 -45.5t41 -17.5
q33 0 60 27z" />
    <glyph glyph-name="circumflex" unicode="&#x2c6;" 
d="M139 583l152 155h146l75 -155h-108l-58 60l-86 -60h-121z" />
    <glyph glyph-name="caron" unicode="&#x2c7;" 
d="M252 583l-75 155h107l58 -59l87 59h120l-152 -155h-145z" />
    <glyph glyph-name="breve" unicode="&#x2d8;" 
d="M345 581q-78 0 -119.5 41t-40.5 113h107q2 -23 17 -38t42 -15q55 0 85 53h107q-21 -71 -73 -112.5t-125 -41.5z" />
    <glyph glyph-name="dotaccent" unicode="&#x2d9;" 
d="M248 584l35 135h156l-34 -135h-157z" />
    <glyph glyph-name="ring" unicode="&#x2da;" 
d="M473 715q0 -53 -37 -92.5t-94 -39.5q-48 0 -78 28.5t-30 73.5q0 53 37.5 92.5t93.5 39.5q48 0 78 -29t30 -73zM297 689q0 -23 13.5 -37.5t35.5 -14.5q28 0 46.5 22t18.5 52q0 23 -13.5 37.5t-35.5 14.5q-28 0 -46.5 -22t-18.5 -52z" />
    <glyph glyph-name="ogonek" unicode="&#x2db;" 
d="M278 -73l-19 -79q-29 -4 -63 -4q-55 -1 -85 15.5t-30 47.5q0 46 76 105l108 1q-42 -48 -42 -63q0 -23 55 -23z" />
    <glyph glyph-name="tilde" unicode="&#x2dc;" 
d="M461 744l86 -25q-26 -70 -56 -103.5t-75 -33.5q-35 0 -83 22q-41 17 -53 17q-17 0 -28 -10t-24 -34l-86 25q26 70 56.5 103.5t74.5 33.5q33 0 83 -21q37 -17 53 -17q17 0 28 10t24 33z" />
    <glyph glyph-name="hungarumlaut" unicode="&#x2dd;" 
d="M302 582l90 117l-154 -117h-117l136 173l138 -52l40 52l142 -52l-157 -121h-118z" />
    <glyph glyph-name="commaaccent" unicode="&#x326;" 
d="M46 -283l4 53q77 9 86 62h-65l32 124h148l-27 -107q-17 -67 -61.5 -97.5t-116.5 -34.5z" />
    <glyph glyph-name="Wgrave" unicode="&#x1e80;" horiz-adv-x="961" 
d="M521 740l-113 101l172 50l64 -151h-123zM130 -4l-23 704h189l-4 -409l207 411h157l14 -411l190 409h199l-367 -704h-170l-18 389l-205 -389h-169z" />
    <glyph glyph-name="wgrave" unicode="&#x1e81;" horiz-adv-x="759" 
d="M84 -4l-8 547h174l-12 -280l133 282h148v-283l123 281h175l-277 -547h-155l-5 280l-139 -280h-157zM394 582l-108 120l165 53l57 -173h-114z" />
    <glyph glyph-name="Wacute" unicode="&#x1e82;" horiz-adv-x="961" 
d="M515 740l136 151l166 -50l-161 -101h-141zM130 -4l-23 704h189l-4 -409l207 411h157l14 -411l190 409h199l-367 -704h-170l-18 389l-205 -389h-169z" />
    <glyph glyph-name="wacute" unicode="&#x1e83;" horiz-adv-x="759" 
d="M386 582l139 173l158 -53l-166 -120h-131zM84 -4l-8 547h174l-12 -280l133 282h148v-283l123 281h175l-277 -547h-155l-5 280l-139 -280h-157z" />
    <glyph glyph-name="Wdieresis" unicode="&#x1e84;" horiz-adv-x="961" 
d="M415 742l32 130h152l-33 -130h-151zM612 742l33 130h152l-33 -130h-152zM130 -4l-23 704h189l-4 -409l207 411h157l14 -411l190 409h199l-367 -704h-170l-18 389l-205 -389h-169z" />
    <glyph glyph-name="wdieresis" unicode="&#x1e85;" horiz-adv-x="759" 
d="M282 584l34 136h151l-34 -136h-151zM477 584l35 136h150l-34 -136h-151zM84 -4l-8 547h174l-12 -280l133 282h148v-283l123 281h175l-277 -547h-155l-5 280l-139 -280h-157z" />
    <glyph glyph-name="Ygrave" unicode="&#x1ef2;" horiz-adv-x="585" 
d="M128 0l65 271l-109 429h195l45 -257l169 257h213l-332 -444l-63 -256h-183zM329 740l-113 101l172 50l64 -151h-123z" />
    <glyph glyph-name="ygrave" unicode="&#x1ef3;" horiz-adv-x="544" 
d="M127 6l-48 537h181l5 -324l150 324h188l-293 -538q-47 -86 -95 -122t-118 -36q-77 0 -132 42l70 126q32 -25 61 -25q18 0 31 16zM288 582l-108 120l165 53l57 -173h-114z" />
    <glyph glyph-name="enspace" unicode="&#x2002;" 
 />
    <glyph glyph-name="emspace" unicode="&#x2003;" horiz-adv-x="1000" 
 />
    <glyph glyph-name="threeperemspace" unicode="&#x2004;" horiz-adv-x="333" 
 />
    <glyph glyph-name="fourperemspace" unicode="&#x2005;" horiz-adv-x="250" 
 />
    <glyph glyph-name="thinspace" unicode="&#x2009;" horiz-adv-x="133" 
 />
    <glyph glyph-name="hairspace" unicode="&#x200a;" horiz-adv-x="75" 
 />
    <glyph glyph-name="endash" unicode="&#x2013;" horiz-adv-x="492" 
d="M26 234l39 156h421l-39 -156h-421z" />
    <glyph glyph-name="emdash" unicode="&#x2014;" horiz-adv-x="810" 
d="M26 234l39 156h739l-39 -156h-739z" />
    <glyph glyph-name="quoteleft" unicode="&#x2018;" horiz-adv-x="277" 
d="M55 359l40 162q23 93 78.5 136.5t156.5 48.5l8 -71q-107 -11 -125 -89h77l-47 -187h-188z" />
    <glyph glyph-name="quoteright" unicode="&#x2019;" horiz-adv-x="277" 
d="M60 353l-8 71q108 11 125 89h-77l47 187h188l-40 -162q-23 -93 -78.5 -137t-156.5 -48z" />
    <glyph glyph-name="quotesinglbase" unicode="&#x201a;" horiz-adv-x="277" 
d="M-62 -160l-8 70q108 13 125 90h-76l46 187h188l-40 -162q-23 -94 -78.5 -137t-156.5 -48z" />
    <glyph glyph-name="quotedblleft" unicode="&#x201c;" horiz-adv-x="520" 
d="M56 358l40 162q23 93 77.5 137t154.5 48l8 -71q-104 -11 -121 -89h73l-47 -187h-185zM302 358l40 162q23 93 77.5 137t154.5 48l8 -71q-104 -11 -122 -89h74l-47 -187h-185z" />
    <glyph glyph-name="quotedblright" unicode="&#x201d;" horiz-adv-x="520" 
d="M60 353l-7 71q104 11 121 89h-73l47 187h185l-40 -162q-23 -93 -78 -136.5t-155 -48.5zM306 353l-8 71q105 11 122 89h-73l47 187h185l-40 -162q-24 -93 -78.5 -136.5t-154.5 -48.5z" />
    <glyph glyph-name="quotedblbase" unicode="&#x201e;" horiz-adv-x="520" 
d="M-62 -160l-8 70q105 12 122 90h-73l46 187h185l-40 -162q-23 -93 -77.5 -137t-154.5 -48zM183 -160l-8 70q105 12 122 90h-73l47 187h185l-40 -162q-23 -93 -78 -137t-155 -48z" />
    <glyph glyph-name="dagger" unicode="&#x2020;" horiz-adv-x="363" 
d="M124 228l76 268l-114 -12l26 102l107 -12l14 126h110l-47 -126l113 12l-25 -102l-108 12l-54 -268h-98z" />
    <glyph glyph-name="daggerdbl" unicode="&#x2021;" horiz-adv-x="372" 
d="M67 0l47 126l-112 -12l25 102l108 -12l21 146l50 146l-116 -12l26 102l108 -12l14 126h110l-47 -126l112 12l-26 -102l-107 12l-21 -146l-50 -146l115 12l-25 -102l-107 12l-15 -126h-110z" />
    <glyph glyph-name="bullet" unicode="&#x2022;" horiz-adv-x="456" 
d="M274 522q57 0 90 -34t33 -92q0 -45 -17.5 -90.5t-47.5 -75.5q-46 -46 -108 -46q-57 0 -89.5 33.5t-32.5 92.5q0 45 17.5 91t46.5 75q46 46 108 46z" />
    <glyph glyph-name="ellipsis" unicode="&#x2026;" horiz-adv-x="792" 
d="M-21 0l45 185h186l-46 -185h-185zM237 0l46 185h186l-46 -185h-186zM495 0l47 185h185l-45 -185h-187z" />
    <glyph glyph-name="perthousand" unicode="&#x2030;" horiz-adv-x="1164" 
d="M56 0l334 376l279 324h121l-334 -376l-279 -324h-121zM217 332q-68 0 -106.5 42t-38.5 114q0 106 65 171q49 49 120 49q67 0 106 -42t39 -113q0 -105 -65 -172q-49 -49 -120 -49zM224 430q20 0 35 15q35 37 35 105q0 29 -12 44.5t-32 15.5t-35 -15q-35 -33 -35 -105
q0 -60 44 -60zM589 -8q-67 0 -106 42t-39 113q0 105 65 172q51 49 120 49q68 0 106.5 -42t38.5 -114q0 -106 -65 -171q-49 -49 -120 -49zM596 89q18 0 36 16q34 34 34 104q0 60 -44 60q-20 0 -35 -15q-35 -35 -35 -105q0 -29 12 -44.5t32 -15.5zM960 -8q-68 0 -106.5 41.5
t-38.5 113.5q0 105 65 172q49 49 120 49q67 0 106 -42t39 -114q0 -106 -65 -171q-51 -49 -120 -49zM967 89q19 0 35 16q35 35 35 104q0 60 -44 60q-19 0 -36 -15q-34 -34 -34 -105q0 -60 44 -60z" />
    <glyph glyph-name="guilsinglleft" unicode="&#x2039;" horiz-adv-x="325" 
d="M132 32l-107 216l10 39l212 215l88 -78l-142 -171l60 -170z" />
    <glyph glyph-name="guilsinglright" unicode="&#x203a;" horiz-adv-x="325" 
d="M191 500l107 -216l-10 -39l-212 -215l-88 78l142 171l-60 170z" />
    <glyph glyph-name="Euro" unicode="&#x20ac;" horiz-adv-x="592" 
d="M50 379l25 102h60q34 91 90 145q86 86 213 86q142 0 214 -122l-129 -100q-40 61 -96 61q-44 0 -77 -31q-19 -19 -30 -40h146l-25 -101h-153q-8 -29 -12 -54h152l-25 -102h-134q11 -75 82 -75q49 0 99 44l93 -121q-88 -83 -203 -83q-107 0 -173.5 62t-75.5 171h-79l26 104
h59l11 54h-58z" />
    <glyph glyph-name="published" unicode="&#x2117;" horiz-adv-x="729" 
d="M306 552h111q69 0 107.5 -30.5t38.5 -88.5q0 -71 -49 -115.5t-132 -44.5h-42l-28 -114h-102zM461 423q0 43 -48 43h-27l-26 -111h27q34 0 54 19t20 49zM424 713q128 0 205.5 -84t77.5 -216q0 -90 -32 -177t-93 -149q-100 -100 -241 -100q-128 0 -205.5 84t-77.5 216
q0 90 32 177.5t93 148.5q100 100 241 100zM343 26q123 0 208 85q57 56 86 137t29 163q1 115 -64 189t-180 74q-123 0 -208 -85q-57 -56 -86 -136.5t-29 -162.5q0 -116 65 -190t179 -74z" />
    <glyph glyph-name="servicemark" unicode="&#x2120;" horiz-adv-x="614" 
d="M183 384q-71 0 -127 56l48 55q43 -43 82 -43q32 0 32 24q0 10 -8.5 17.5t-35.5 21.5q-36 20 -52 40t-16 48q0 42 28 70q33 33 87 33q63 0 112 -47l-46 -56q-38 35 -72 35q-13 0 -21 -6.5t-8 -16.5t8.5 -18t36.5 -24q35 -19 51 -38t16 -48q0 -40 -28 -70q-33 -33 -87 -33z
M318 390l74 310h83l30 -112l85 112h89l-75 -310h-79l42 181l-90 -118h-4l-34 118l-42 -181h-79z" />
    <glyph glyph-name="trademark" unicode="&#x2122;" horiz-adv-x="609" 
d="M111 390l56 237h-77l19 73h236l-19 -73h-77l-56 -237h-82zM312 390l74 310h83l31 -112l85 112h89l-74 -310h-80l42 180l-90 -117h-4l-35 117l-42 -180h-79z" />
    <glyph glyph-name="minus" unicode="&#x2212;" horiz-adv-x="564" 
d="M46 272l40 160h470l-40 -160h-470z" />
    <glyph glyph-name="Q.alt" horiz-adv-x="695" 
d="M412 713q126 0 203 -79t77 -210q0 -80 -28 -163t-78 -145l47 -74l-136 -82l-34 60q-69 -32 -143 -32q-126 0 -203 78.5t-77 209.5q0 90 34 182.5t96 154.5q100 100 242 100zM334 150q22 0 41 6l-65 99l136 83l34 -60q26 69 26 132q0 66 -28 101.5t-81 35.5q-55 0 -93 -40
q-36 -36 -57.5 -100.5t-21.5 -119.5q0 -137 109 -137z" />
    <glyph glyph-name="a.alt" horiz-adv-x="588" 
d="M178 -11q-69 0 -113.5 54t-44.5 150q0 81 28 163t78 131q65 67 153 67q90 0 137 -79l16 68h180l-133 -543h-180l14 56q-67 -67 -135 -67zM270 139q32 0 58 26q25 25 39.5 68t14.5 85q0 40 -18.5 63t-49.5 23q-32 0 -59 -27q-24 -24 -39 -66.5t-15 -84.5q0 -87 69 -87z
" />
    <glyph glyph-name="aacute.alt" horiz-adv-x="588" 
d="M310 586l139 173l158 -53l-166 -120h-131zM178 -11q-69 0 -113.5 54t-44.5 150q0 81 28 163t78 131q65 67 153 67q90 0 137 -79l16 68h180l-133 -543h-180l14 56q-67 -67 -135 -67zM270 139q32 0 58 26q25 25 39.5 68t14.5 85q0 40 -18.5 63t-49.5 23q-32 0 -59 -27
q-24 -24 -39 -66.5t-15 -84.5q0 -87 69 -87z" />
    <glyph glyph-name="abreve.alt" horiz-adv-x="588" 
d="M178 -11q-69 0 -113.5 54t-44.5 150q0 81 28 163t78 131q65 67 153 67q90 0 137 -79l16 68h180l-133 -543h-180l14 56q-67 -67 -135 -67zM270 139q32 0 58 26q25 25 39.5 68t14.5 85q0 40 -18.5 63t-49.5 23q-32 0 -59 -27q-24 -24 -39 -66.5t-15 -84.5q0 -87 69 -87z
M391 585q-78 0 -119.5 41t-40.5 113h107q2 -23 17 -38t42 -15q55 0 85 53h107q-21 -71 -73 -112.5t-125 -41.5z" />
    <glyph glyph-name="acircumflex.alt" horiz-adv-x="588" 
d="M187 587l152 155h146l75 -155h-108l-58 60l-86 -60h-121zM178 -11q-69 0 -113.5 54t-44.5 150q0 81 28 163t78 131q65 67 153 67q90 0 137 -79l16 68h180l-133 -543h-180l14 56q-67 -67 -135 -67zM270 139q32 0 58 26q25 25 39.5 68t14.5 85q0 40 -18.5 63t-49.5 23
q-32 0 -59 -27q-24 -24 -39 -66.5t-15 -84.5q0 -87 69 -87z" />
    <glyph glyph-name="adieresis.alt" horiz-adv-x="588" 
d="M207 588l34 136h151l-34 -136h-151zM402 588l35 136h150l-34 -136h-151zM178 -11q-69 0 -113.5 54t-44.5 150q0 81 28 163t78 131q65 67 153 67q90 0 137 -79l16 68h180l-133 -543h-180l14 56q-67 -67 -135 -67zM270 139q32 0 58 26q25 25 39.5 68t14.5 85q0 40 -18.5 63
t-49.5 23q-32 0 -59 -27q-24 -24 -39 -66.5t-15 -84.5q0 -87 69 -87z" />
    <glyph glyph-name="agrave.alt" horiz-adv-x="588" 
d="M178 -11q-69 0 -113.5 54t-44.5 150q0 81 28 163t78 131q65 67 153 67q90 0 137 -79l16 68h180l-133 -543h-180l14 56q-67 -67 -135 -67zM270 139q32 0 58 26q25 25 39.5 68t14.5 85q0 40 -18.5 63t-49.5 23q-32 0 -59 -27q-24 -24 -39 -66.5t-15 -84.5q0 -87 69 -87z
M321 586l-108 120l165 53l57 -173h-114z" />
    <glyph glyph-name="amacron.alt" horiz-adv-x="588" 
d="M178 -11q-69 0 -113.5 54t-44.5 150q0 81 28 163t78 131q65 67 153 67q90 0 137 -79l16 68h180l-133 -543h-180l14 56q-67 -67 -135 -67zM270 139q32 0 58 26q25 25 39.5 68t14.5 85q0 40 -18.5 63t-49.5 23q-32 0 -59 -27q-24 -24 -39 -66.5t-15 -84.5q0 -87 69 -87z
M213 588l28 110h333l-28 -110h-333z" />
    <glyph glyph-name="aogonek.alt" horiz-adv-x="588" 
d="M475 -73l-19 -79q-29 -4 -63 -4q-55 -1 -85 15.5t-30 47.5q0 43 61 93h-40l14 56q-67 -67 -135 -67q-69 0 -113.5 54t-44.5 150q0 81 28 163t78 131q65 67 153 67q90 0 137 -79l16 68h180l-133 -543h-29q-30 -34 -30 -50q0 -23 55 -23zM270 139q32 0 58 26q25 25 39.5 68
t14.5 85q0 40 -18.5 63t-49.5 23q-32 0 -59 -27q-24 -24 -39 -66.5t-15 -84.5q0 -87 69 -87z" />
    <glyph glyph-name="aring.alt" horiz-adv-x="588" 
d="M527 719q0 -53 -37 -92.5t-94 -39.5q-48 0 -78 28.5t-30 73.5q0 53 37.5 92.5t93.5 39.5q48 0 78 -29t30 -73zM351 693q0 -23 13.5 -37.5t35.5 -14.5q28 0 46.5 22t18.5 52q0 23 -13.5 37.5t-35.5 14.5q-28 0 -46.5 -22t-18.5 -52zM178 -11q-69 0 -113.5 54t-44.5 150
q0 81 28 163t78 131q65 67 153 67q90 0 137 -79l16 68h180l-133 -543h-180l14 56q-67 -67 -135 -67zM270 139q32 0 58 26q25 25 39.5 68t14.5 85q0 40 -18.5 63t-49.5 23q-32 0 -59 -27q-24 -24 -39 -66.5t-15 -84.5q0 -87 69 -87z" />
    <glyph glyph-name="aring.alt2" horiz-adv-x="526" 
d="M246 0l12 52q-62 -62 -132 -62q-60 0 -95.5 38t-35.5 101q0 91 55 146q56 56 158 56q54 0 114 -21l2 8q5 20 5 38q0 52 -76 52q-61 0 -124 -26l-29 136q68 24 145 30q-15 22 -15 54q0 51 38 90t93 39q49 0 79.5 -28.5t30.5 -73.5q0 -66 -52 -101q89 -39 89 -137
q0 -39 -13 -89l-72 -302h-177zM342 551q28 0 46.5 22t18.5 52q0 23 -13.5 37.5t-35.5 14.5q-28 0 -46.5 -22t-18.5 -52q0 -23 14 -37.5t35 -14.5zM211 102q30 0 52.5 25t30.5 61l9 38q-28 11 -56 11q-34 0 -55 -21q-25 -23 -25 -65q0 -49 44 -49z" />
    <glyph glyph-name="aringacute.alt" horiz-adv-x="588" 
d="M375 853l139 145l157 -50l-165 -95h-131zM527 719q0 -53 -37 -92.5t-94 -39.5q-48 0 -78 28.5t-30 73.5q0 53 37.5 92.5t93.5 39.5q48 0 78 -29t30 -73zM351 693q0 -23 13.5 -37.5t35.5 -14.5q28 0 46.5 22t18.5 52q0 23 -13.5 37.5t-35.5 14.5q-28 0 -46.5 -22
t-18.5 -52zM178 -11q-69 0 -113.5 54t-44.5 150q0 81 28 163t78 131q65 67 153 67q90 0 137 -79l16 68h180l-133 -543h-180l14 56q-67 -67 -135 -67zM270 139q32 0 58 26q25 25 39.5 68t14.5 85q0 40 -18.5 63t-49.5 23q-32 0 -59 -27q-24 -24 -39 -66.5t-15 -84.5
q0 -87 69 -87z" />
    <glyph glyph-name="aringacute.alt2" horiz-adv-x="526" 
d="M315 760l140 146l156 -50l-164 -96h-132zM246 0l12 52q-62 -62 -132 -62q-60 0 -95.5 38t-35.5 101q0 91 55 146q56 56 158 56q54 0 114 -21l2 8q5 20 5 38q0 52 -76 52q-61 0 -124 -26l-29 136q68 24 145 30q-15 22 -15 54q0 51 38 90t93 39q49 0 79.5 -28.5t30.5 -73.5
q0 -66 -52 -101q89 -39 89 -137q0 -39 -13 -89l-72 -302h-177zM342 551q28 0 46.5 22t18.5 52q0 23 -13.5 37.5t-35.5 14.5q-28 0 -46.5 -22t-18.5 -52q0 -23 14 -37.5t35 -14.5zM211 102q30 0 52.5 25t30.5 61l9 38q-28 11 -56 11q-34 0 -55 -21q-25 -23 -25 -65
q0 -49 44 -49z" />
    <glyph glyph-name="atilde.alt" horiz-adv-x="588" 
d="M178 -11q-69 0 -113.5 54t-44.5 150q0 81 28 163t78 131q65 67 153 67q90 0 137 -79l16 68h180l-133 -543h-180l14 56q-67 -67 -135 -67zM270 139q32 0 58 26q25 25 39.5 68t14.5 85q0 40 -18.5 63t-49.5 23q-32 0 -59 -27q-24 -24 -39 -66.5t-15 -84.5q0 -87 69 -87z
M509 748l86 -25q-26 -70 -56 -103.5t-75 -33.5q-35 0 -83 22q-41 17 -53 17q-17 0 -28 -10t-24 -34l-86 25q26 70 56.5 103.5t74.5 33.5q33 0 83 -21q37 -17 53 -17q17 0 28 10t24 33z" />
    <glyph glyph-name="three.alt" horiz-adv-x="539" 
d="M223 -12q-159 0 -251 110l116 119q62 -71 134 -71q42 0 65 22.5t23 53.5q0 62 -89 63h-51l35 141h53q49 0 77.5 20.5t28.5 55.5q0 23 -16.5 37.5t-44.5 14.5q-60 0 -129 -54l-82 123q103 90 239 90q103 0 160.5 -51.5t57.5 -125.5q0 -68 -39 -116.5t-111 -71.5
q93 -41 93 -141q0 -96 -75.5 -157.5t-193.5 -61.5z" />
    <glyph glyph-name="registered.alt" horiz-adv-x="729" 
d="M424 713q128 0 205.5 -84t77.5 -216q0 -90 -32 -177t-93 -149q-100 -100 -241 -100q-128 0 -205.5 84t-77.5 216q0 90 32 177.5t93 148.5q100 100 241 100zM343 26q123 0 208 85q57 56 86 137t29 163q1 115 -64 189t-180 74q-123 0 -208 -85q-57 -56 -86 -136.5
t-29 -162.5q0 -116 65 -190t179 -74zM327 283l-28 -121h-102l96 394h116q87 0 125 -38q30 -30 30 -82q0 -59 -37 -98q-26 -24 -65 -37l45 -139h-108l-34 121h-38zM348 362h35q42 0 62 20q16 18 16 43q0 20 -10 30q-13 13 -45 13h-34z" />
    <glyph glyph-name="NUL" horiz-adv-x="0" 
 />
    <glyph glyph-name="hfjslug" horiz-adv-x="694" 
d="M255 276h8l11 34h1l11 -34h8l14 47h-8l-10 -35h-1l-11 35h-7l-11 -35h-1l-10 35h-8zM321 388q19 0 29 24h1l12 -24l12 6l-17 32q6 14 13 39l-13 3q-4 -18 -8 -30h-1l-16 31q23 21 23 42q0 31 -27 31q-12 0 -20 -9t-8 -22t14 -39q-23 -18 -23 -47q0 -16 8 -26.5t21 -10.5z
M50 -200v303q14 0 23 9.5t9 22.5t-9.5 22.5t-22.5 9.5v554h100l30 79h334l29 -79h101v-921h-208l-8 14h-163l-8 -14h-207zM523 277h8v12l8 8l15 -20h10l-20 26l18 20h-10l-20 -24h-1v24h-8v-46zM193 277h34v7h-26v13h23v7h-23v12h26v7h-34v-46zM184 391h15v79h47v-79h15v172
h-15v-79h-47v79h-15v-172zM132 277h8v32l25 -32h7v46h-8v-32l-25 32h-7v-46zM400 391h15v78h38v14h-38v66h43v14h-58v-172zM468 277h8v15h12l10 -15h9l-12 17q10 4 10 14q0 15 -17 15h-20v-46zM366 277h8v17l18 29h-9l-13 -22l-13 22h-9l18 -29v-17zM481 390q31 0 31 36v137
h-16v-137q0 -22 -16 -22q-8 0 -20 5v-15q10 -4 21 -4zM476 299v17h11q10 0 10 -8q0 -9 -10 -9h-11zM322 402q-16 0 -16 25q0 19 16 35l20 -39q-8 -21 -20 -21zM327 479q-12 22 -12 32q0 19 14 19q13 0 13 -19q0 -15 -15 -32zM426 283q-16 0 -16 17q0 6 4.5 11.5t11.5 5.5
t11.5 -5.5t4.5 -11.5q0 -17 -16 -17zM426 276q10 0 17 7t7 17q0 9 -7 16.5t-17 7.5t-17 -7.5t-7 -16.5q0 -10 7 -17t17 -7z" />
    <glyph glyph-name="i.dot" horiz-adv-x="272" 
d="M-20 0l133 543h179l-132 -543h-180zM120 587l36 140h185l-36 -140h-185z" />
    <glyph glyph-name="caron.alt" 
d="M270 579l50 203h126v-3l-107 -200h-69z" />
    <glyph glyph-name="acute.cap" 
d="M243 740l136 151l166 -50l-161 -101h-141z" />
    <glyph glyph-name="hungarumlaut.cap" 
d="M352 740l78 89l-134 -89h-126l131 151l142 -47l42 47l150 -50l-155 -101h-128z" />
    <glyph glyph-name="grave.cap" 
d="M355 740l-113 101l172 50l64 -151h-123z" />
    <glyph glyph-name="circumflex.cap" 
d="M178 741l145 140h158l76 -140h-113l-57 50l-82 -50h-127z" />
    <glyph glyph-name="caron.cap" 
d="M592 881l-146 -140h-157l-76 140h112l58 -50l81 50h128z" />
    <glyph glyph-name="breve.cap" 
d="M370 739q-76 0 -115.5 36t-30.5 104h102q8 -41 64 -41q51 0 78 41h112q-25 -69 -79.5 -104.5t-130.5 -35.5z" />
    <glyph glyph-name="tilde.cap" 
d="M260 735l-86 25q26 70 56.5 103t76.5 33q37 0 89 -21q38 -16 54 -16q18 0 30 9.5t25 32.5l86 -24q-26 -70 -57 -103.5t-77 -33.5q-32 0 -89 21q-41 17 -54 17q-18 0 -29.5 -10t-24.5 -33z" />
    <glyph glyph-name="macron.cap" 
d="M190 744l29 112h356l-28 -112h-357z" />
    <glyph glyph-name="dieresis.cap" 
d="M194 742l32 130h152l-33 -130h-151zM391 742l33 130h152l-33 -130h-152z" />
    <glyph glyph-name="dotaccent.cap" 
d="M289 742l33 130h157l-33 -130h-157z" />
    <glyph glyph-name="ring.cap" 
d="M328 971q50 0 83.5 -29.5t33.5 -71.5q0 -54 -39 -92t-102 -38q-50 0 -84 30t-34 72q0 53 39.5 91t102.5 38zM309 797q33 0 52.5 20.5t19.5 45.5q0 23 -16 37.5t-42 14.5q-33 0 -52.5 -20.5t-19.5 -45.5q0 -23 16 -37.5t42 -14.5z" />
    </font>
</defs>
</svg>
